<svg width="144" height="138" viewBox="0 0 144 138" fill="none" xmlns="http://www.w3.org/2000/svg">
  <path
    d="M72 115C84.7304 115 96.9394 110.154 105.941 101.527C114.943 92.9002 120 81.2 120 69C120 56.8 114.943 45.0998 105.941 36.4731C96.9394 27.8464 84.7304 23 72 23C59.2696 23 47.0606 27.8464 38.0589 36.4731C29.0571 45.0998 24 56.8 24 69C24 81.2 29.0571 92.9002 38.0589 101.527C47.0606 110.154 59.2696 115 72 115ZM72 126.5C38.862 126.5 12 100.757 12 69C12 37.2428 38.862 11.5 72 11.5C105.138 11.5 132 37.2428 132 69C132 100.757 105.138 126.5 72 126.5Z"
    fill="black" />
  <path
    d="M74.412 41.0032C73.6208 40.5012 72.6906 40.2383 71.7418 40.2486C70.7929 40.2588 69.8692 40.5418 69.09 41.0607L45.24 56.9825C44.6127 57.4005 44.1002 57.9576 43.746 58.6064C43.3919 59.2551 43.2066 59.9763 43.206 60.7085V77.855C43.2064 78.6061 43.4012 79.3454 43.773 80.0067C44.1447 80.668 44.6817 81.2306 45.336 81.6442L69.57 96.9967C70.3446 97.4864 71.2521 97.7474 72.18 97.7474C73.1079 97.7474 74.0154 97.4864 74.79 96.9967L99.51 81.3452C100.162 80.9315 100.698 80.3695 101.068 79.7093C101.439 79.0492 101.633 78.3114 101.634 77.5617V60.7142C101.635 59.9627 101.442 59.2225 101.071 58.5602C100.7 57.8979 100.164 57.334 99.51 56.9192L74.406 41.0032H74.412ZM92.874 59.5757L83.736 65.458L75.168 59.4895L75.114 47.7422L92.874 59.5815V59.5757ZM68.916 47.7595V59.2537L60.138 65.1302L51.378 59.501L68.916 47.7537V47.7595ZM48.984 65.1647L54.648 68.8045L48.984 72.6052V65.1647ZM69.066 89.6655L51.384 78.3035L60.216 72.3867L69.066 78.0792V89.6655ZM65.706 68.7125L71.436 64.8772L78.096 69.0747L72.192 72.8812L65.712 68.7125H65.706ZM75.312 89.6655V78.0735L83.772 72.6455L92.874 78.3782L75.312 89.6655ZM95.394 72.8007L89.394 69.023L95.394 65.1647V72.8007Z"
    fill="black" />
</svg>