<svg width="126" height="130" viewBox="0 0 126 130" fill="none" xmlns="http://www.w3.org/2000/svg">
  <path
    d="M42.1439 100.902C42.1439 101.41 41.5597 101.816 40.823 101.816C39.9847 101.893 39.4004 101.486 39.4004 100.902C39.4004 100.395 39.9847 99.9883 40.7214 99.9883C41.4835 99.9121 42.1439 100.318 42.1439 100.902ZM34.2435 99.7598C34.0657 100.268 34.5738 100.852 35.3359 101.004C35.9964 101.258 36.7585 101.004 36.9109 100.496C37.0633 99.9883 36.5806 99.4043 35.8185 99.1758C35.1581 98.998 34.4214 99.252 34.2435 99.7598ZM45.4718 99.3281C44.7351 99.5059 44.227 99.9883 44.3032 100.572C44.3794 101.08 45.0399 101.41 45.802 101.232C46.5387 101.055 47.0468 100.572 46.9706 100.064C46.8944 99.582 46.2085 99.252 45.4718 99.3281ZM62.1871 2.03125C26.9528 2.03125 0 28.7676 0 63.9844C0 92.1426 17.7315 116.238 43.0585 124.719C46.3101 125.303 47.4532 123.297 47.4532 121.646C47.4532 120.072 47.377 111.389 47.377 106.057C47.377 106.057 29.5948 109.865 25.8605 98.4902C25.8605 98.4902 22.9645 91.1016 18.7984 89.1973C18.7984 89.1973 12.981 85.2109 19.2048 85.2871C19.2048 85.2871 25.5302 85.7949 29.0105 91.8379C34.5738 101.639 43.8968 98.8203 47.5294 97.1445C48.1137 93.082 49.7649 90.2637 51.594 88.5879C37.3936 87.0137 23.0661 84.957 23.0661 60.5312C23.0661 53.5488 24.9968 50.0449 29.0613 45.5762C28.4008 43.9258 26.2415 37.1211 29.7218 28.3359C35.031 26.6855 47.25 35.1914 47.25 35.1914C52.3306 33.7695 57.7923 33.0332 63.2032 33.0332C68.6141 33.0332 74.0758 33.7695 79.1564 35.1914C79.1564 35.1914 91.3754 26.6602 96.6847 28.3359C100.165 37.1465 98.0056 43.9258 97.3452 45.5762C101.41 50.0703 103.899 53.5742 103.899 60.5312C103.899 85.0332 88.9367 86.9883 74.7363 88.5879C77.0734 90.5938 79.0548 94.4023 79.0548 100.369C79.0548 108.926 78.9786 119.514 78.9786 121.596C78.9786 123.246 80.1472 125.252 83.3734 124.668C108.777 116.238 126 92.1426 126 63.9844C126 28.7676 97.4214 2.03125 62.1871 2.03125ZM24.6919 89.6035C24.3617 89.8574 24.4379 90.4414 24.8698 90.9238C25.2762 91.3301 25.8605 91.5078 26.1907 91.1777C26.521 90.9238 26.4448 90.3398 26.0129 89.8574C25.6065 89.4512 25.0222 89.2734 24.6919 89.6035ZM21.9484 87.5469C21.7706 87.877 22.0246 88.2832 22.5327 88.5371C22.9391 88.791 23.4472 88.7148 23.625 88.3594C23.8028 88.0293 23.5488 87.623 23.0407 87.3691C22.5327 87.2168 22.1262 87.293 21.9484 87.5469ZM30.179 96.5859C29.7726 96.916 29.925 97.6777 30.5093 98.1602C31.0935 98.7441 31.8302 98.8203 32.1605 98.4141C32.4907 98.084 32.3383 97.3223 31.8302 96.8398C31.2714 96.2559 30.5093 96.1797 30.179 96.5859ZM27.2831 92.8535C26.8766 93.1074 26.8766 93.7676 27.2831 94.3516C27.6895 94.9355 28.3754 95.1895 28.7056 94.9355C29.1121 94.6055 29.1121 93.9453 28.7056 93.3613C28.35 92.7773 27.6895 92.5234 27.2831 92.8535Z"
    fill="black" />
</svg>