<svg xmlns="http://www.w3.org/2000/svg" width="149" height="149" viewBox="0 0 149 149" fill="none">
  <path
    d="M120.028 22.7639H28.9722C25.5435 22.7639 22.7639 25.5435 22.7639 28.9722V120.028C22.7639 123.457 25.5435 126.236 28.9722 126.236H120.028C123.457 126.236 126.236 123.457 126.236 120.028V28.9722C126.236 25.5435 123.457 22.7639 120.028 22.7639Z"
    fill="#61B2E4" />
  <path d="M41.3889 62.0833H53.8056V105.542H41.3889V62.0833Z" fill="white" />
  <path
    d="M47.5972 52.7708C51.5974 52.7708 54.8402 49.528 54.8402 45.5278C54.8402 41.5276 51.5974 38.2847 47.5972 38.2847C43.597 38.2847 40.3541 41.5276 40.3541 45.5278C40.3541 49.528 43.597 52.7708 47.5972 52.7708Z"
    fill="white" />
  <path
    d="M87.9514 72.4305C83.38 72.4305 79.6736 74.8477 79.6736 81.743V105.542H67.257V62.0833H79.6736V66.6568H79.6695C81.2216 64.8921 83.1325 63.479 85.2745 62.5119C87.4164 61.5447 89.7401 61.0459 92.0903 61.0486C101.233 61.0486 108.646 67.8778 108.646 79.6736V105.542H96.2292V81.743C96.2292 74.8477 92.5249 72.4305 87.9514 72.4305Z"
    fill="white" />
  <path
    d="M120.028 22.7639H28.9722C25.5435 22.7639 22.7639 25.5435 22.7639 28.9722V120.028C22.7639 123.457 25.5435 126.236 28.9722 126.236H120.028C123.457 126.236 126.236 123.457 126.236 120.028V28.9722C126.236 25.5435 123.457 22.7639 120.028 22.7639Z"
    stroke="black" stroke-width="2" stroke-miterlimit="10" />
  <path d="M41.3889 62.0834H53.8056V105.542H41.3889V62.0834Z" stroke="black" stroke-width="2" stroke-linecap="round"
    stroke-linejoin="round" />
  <path
    d="M47.5973 52.7708C51.5975 52.7708 54.8404 49.528 54.8404 45.5278C54.8404 41.5276 51.5975 38.2847 47.5973 38.2847C43.5971 38.2847 40.3542 41.5276 40.3542 45.5278C40.3542 49.528 43.5971 52.7708 47.5973 52.7708Z"
    stroke="black" stroke-width="2" stroke-linecap="round" stroke-linejoin="round" />
  <path
    d="M87.9514 72.4306C83.38 72.4306 79.6736 74.8477 79.6736 81.7431V105.542H67.257V62.0834H79.6736V66.6568H79.6695C81.2216 64.8922 83.1325 63.4791 85.2745 62.5119C87.4164 61.5448 89.7401 61.0459 92.0903 61.0487C101.233 61.0487 108.646 67.8778 108.646 79.6737V105.542H96.2292V81.7431C96.2292 74.8477 92.5249 72.4306 87.9514 72.4306Z"
    stroke="black" stroke-width="2" stroke-linecap="round" stroke-linejoin="round" />
</svg>