<svg width="103" height="18" viewBox="0 0 103 18" fill="none" xmlns="http://www.w3.org/2000/svg">
  <mask id="path-1-outside-1_2_6" maskUnits="userSpaceOnUse" x="0.791992" y="1.644" width="101" height="16"
    fill="black">
    <rect fill="white" x="0.791992" y="1.644" width="101" height="16" />
    <path
      d="M8.57799 16.18C7.59399 16.18 6.68799 16.024 5.85999 15.712C5.04399 15.388 4.32999 14.938 3.71799 14.362C3.10599 13.774 2.63199 13.084 2.29599 12.292C1.95999 11.5 1.79199 10.636 1.79199 9.7C1.79199 8.764 1.95999 7.9 2.29599 7.108C2.63199 6.316 3.10599 5.632 3.71799 5.056C4.34199 4.468 5.06799 4.018 5.89599 3.706C6.72399 3.382 7.62999 3.22 8.61399 3.22C9.68199 3.22 10.642 3.394 11.494 3.742C12.358 4.09 13.084 4.6 13.672 5.272L12.196 6.712C11.704 6.22 11.17 5.86 10.594 5.632C10.03 5.392 9.40599 5.272 8.72199 5.272C8.06199 5.272 7.44999 5.38 6.88599 5.596C6.32199 5.812 5.83599 6.118 5.42799 6.514C5.01999 6.91 4.70199 7.378 4.47399 7.918C4.25799 8.458 4.14999 9.052 4.14999 9.7C4.14999 10.336 4.25799 10.924 4.47399 11.464C4.70199 12.004 5.01999 12.478 5.42799 12.886C5.83599 13.282 6.31599 13.588 6.86799 13.804C7.41999 14.02 8.03199 14.128 8.70399 14.128C9.32799 14.128 9.92799 14.032 10.504 13.84C11.092 13.636 11.65 13.3 12.178 12.832L13.51 14.578C12.85 15.106 12.082 15.508 11.206 15.784C10.342 16.048 9.46599 16.18 8.57799 16.18ZM11.296 14.272V9.556H13.51V14.578L11.296 14.272Z" />
    <path
      d="M20.7003 16.126C19.7163 16.126 18.8403 15.916 18.0723 15.496C17.3043 15.064 16.6983 14.476 16.2543 13.732C15.8103 12.988 15.5883 12.142 15.5883 11.194C15.5883 10.234 15.8103 9.388 16.2543 8.656C16.6983 7.912 17.3043 7.33 18.0723 6.91C18.8403 6.49 19.7163 6.28 20.7003 6.28C21.6963 6.28 22.5783 6.49 23.3463 6.91C24.1263 7.33 24.7323 7.906 25.1643 8.638C25.6083 9.37 25.8303 10.222 25.8303 11.194C25.8303 12.142 25.6083 12.988 25.1643 13.732C24.7323 14.476 24.1263 15.064 23.3463 15.496C22.5783 15.916 21.6963 16.126 20.7003 16.126ZM20.7003 14.2C21.2523 14.2 21.7443 14.08 22.1763 13.84C22.6083 13.6 22.9443 13.252 23.1843 12.796C23.4363 12.34 23.5623 11.806 23.5623 11.194C23.5623 10.57 23.4363 10.036 23.1843 9.592C22.9443 9.136 22.6083 8.788 22.1763 8.548C21.7443 8.308 21.2583 8.188 20.7183 8.188C20.1663 8.188 19.6743 8.308 19.2423 8.548C18.8223 8.788 18.4863 9.136 18.2343 9.592C17.9823 10.036 17.8563 10.57 17.8563 11.194C17.8563 11.806 17.9823 12.34 18.2343 12.796C18.4863 13.252 18.8223 13.6 19.2423 13.84C19.6743 14.08 20.1603 14.2 20.7003 14.2Z" />
    <path
      d="M32.3019 16.126C31.3179 16.126 30.4419 15.916 29.6739 15.496C28.9059 15.064 28.2999 14.476 27.8559 13.732C27.4119 12.988 27.1899 12.142 27.1899 11.194C27.1899 10.234 27.4119 9.388 27.8559 8.656C28.2999 7.912 28.9059 7.33 29.6739 6.91C30.4419 6.49 31.3179 6.28 32.3019 6.28C33.2979 6.28 34.1799 6.49 34.9479 6.91C35.7279 7.33 36.3339 7.906 36.7659 8.638C37.2099 9.37 37.4319 10.222 37.4319 11.194C37.4319 12.142 37.2099 12.988 36.7659 13.732C36.3339 14.476 35.7279 15.064 34.9479 15.496C34.1799 15.916 33.2979 16.126 32.3019 16.126ZM32.3019 14.2C32.8539 14.2 33.3459 14.08 33.7779 13.84C34.2099 13.6 34.5459 13.252 34.7859 12.796C35.0379 12.34 35.1639 11.806 35.1639 11.194C35.1639 10.57 35.0379 10.036 34.7859 9.592C34.5459 9.136 34.2099 8.788 33.7779 8.548C33.3459 8.308 32.8599 8.188 32.3199 8.188C31.7679 8.188 31.2759 8.308 30.8439 8.548C30.4239 8.788 30.0879 9.136 29.8359 9.592C29.5839 10.036 29.4579 10.57 29.4579 11.194C29.4579 11.806 29.5839 12.34 29.8359 12.796C30.0879 13.252 30.4239 13.6 30.8439 13.84C31.2759 14.08 31.7619 14.2 32.3019 14.2Z" />
    <path
      d="M43.6514 16.126C42.7274 16.126 41.8934 15.922 41.1494 15.514C40.4174 15.094 39.8414 14.518 39.4214 13.786C39.0014 13.054 38.7914 12.19 38.7914 11.194C38.7914 10.198 39.0014 9.334 39.4214 8.602C39.8414 7.87 40.4174 7.3 41.1494 6.892C41.8934 6.484 42.7274 6.28 43.6514 6.28C44.4554 6.28 45.1754 6.46 45.8114 6.82C46.4474 7.168 46.9514 7.702 47.3234 8.422C47.6954 9.142 47.8814 10.066 47.8814 11.194C47.8814 12.31 47.7014 13.234 47.3414 13.966C46.9814 14.686 46.4834 15.226 45.8474 15.586C45.2114 15.946 44.4794 16.126 43.6514 16.126ZM43.9214 14.2C44.4614 14.2 44.9414 14.08 45.3614 13.84C45.7934 13.6 46.1354 13.252 46.3874 12.796C46.6514 12.34 46.7834 11.806 46.7834 11.194C46.7834 10.57 46.6514 10.036 46.3874 9.592C46.1354 9.136 45.7934 8.788 45.3614 8.548C44.9414 8.308 44.4614 8.188 43.9214 8.188C43.3814 8.188 42.8954 8.308 42.4634 8.548C42.0434 8.788 41.7014 9.136 41.4374 9.592C41.1854 10.036 41.0594 10.57 41.0594 11.194C41.0594 11.806 41.1854 12.34 41.4374 12.796C41.7014 13.252 42.0434 13.6 42.4634 13.84C42.8954 14.08 43.3814 14.2 43.9214 14.2ZM46.8374 16V13.732L46.9274 11.176L46.7474 8.62V2.644H48.9794V16H46.8374Z" />
    <path
      d="M57.3948 6.28C58.1628 6.28 58.8468 6.43 59.4468 6.73C60.0588 7.03 60.5388 7.492 60.8868 8.116C61.2348 8.728 61.4088 9.52 61.4088 10.492V16H59.1588V10.78C59.1588 9.928 58.9548 9.292 58.5468 8.872C58.1508 8.452 57.5928 8.242 56.8728 8.242C56.3448 8.242 55.8768 8.35 55.4688 8.566C55.0608 8.782 54.7428 9.106 54.5148 9.538C54.2988 9.958 54.1908 10.492 54.1908 11.14V16H51.9408V6.388H54.0828V8.98L53.7048 8.188C54.0408 7.576 54.5268 7.108 55.1628 6.784C55.8108 6.448 56.5548 6.28 57.3948 6.28Z" />
    <path
      d="M68.7987 16.126C67.7307 16.126 66.7947 15.916 65.9907 15.496C65.1987 15.064 64.5807 14.476 64.1367 13.732C63.7047 12.988 63.4887 12.142 63.4887 11.194C63.4887 10.234 63.6987 9.388 64.1187 8.656C64.5507 7.912 65.1387 7.33 65.8827 6.91C66.6387 6.49 67.4967 6.28 68.4567 6.28C69.3927 6.28 70.2267 6.484 70.9587 6.892C71.6907 7.3 72.2667 7.876 72.6867 8.62C73.1067 9.364 73.3167 10.24 73.3167 11.248C73.3167 11.344 73.3107 11.452 73.2987 11.572C73.2987 11.692 73.2927 11.806 73.2807 11.914H65.2707V10.42H72.0927L71.2107 10.888C71.2227 10.336 71.1087 9.85 70.8687 9.43C70.6287 9.01 70.2987 8.68 69.8787 8.44C69.4707 8.2 68.9967 8.08 68.4567 8.08C67.9047 8.08 67.4187 8.2 66.9987 8.44C66.5907 8.68 66.2667 9.016 66.0267 9.448C65.7987 9.868 65.6847 10.366 65.6847 10.942V11.302C65.6847 11.878 65.8167 12.388 66.0807 12.832C66.3447 13.276 66.7167 13.618 67.1967 13.858C67.6767 14.098 68.2287 14.218 68.8527 14.218C69.3927 14.218 69.8787 14.134 70.3107 13.966C70.7427 13.798 71.1267 13.534 71.4627 13.174L72.6687 14.56C72.2367 15.064 71.6907 15.454 71.0307 15.73C70.3827 15.994 69.6387 16.126 68.7987 16.126Z" />
    <path
      d="M77.4262 16L73.8982 6.388H76.0222L79.0462 14.866H78.0382L81.2062 6.388H83.0962L86.1742 14.866H85.1842L88.2982 6.388H90.2962L86.7502 16H84.5902L81.7822 8.494H82.4482L79.5862 16H77.4262Z" />
    <path
      d="M95.4231 16.18C94.5351 16.18 93.6651 16.054 92.8131 15.802C91.9731 15.538 91.2651 15.178 90.6891 14.722L91.6791 12.904C92.1351 13.276 92.6871 13.576 93.3351 13.804C93.9951 14.032 94.6791 14.146 95.3871 14.146C96.2151 14.146 96.8631 13.972 97.3311 13.624C97.8111 13.276 98.0511 12.808 98.0511 12.22C98.0511 11.824 97.9491 11.476 97.7451 11.176C97.5531 10.876 97.2051 10.648 96.7011 10.492C96.2091 10.336 95.5311 10.258 94.6671 10.258H91.6251L92.2731 3.4H99.6711V5.362H93.1371C93.1371 5.362 94.2221 4.49199 94.3611 4.246C94.5 4 94 9 94 9.5C94 10 92.6511 8.278 92.6511 8.278H95.1891C96.4371 8.278 97.4391 8.446 98.1951 8.782C98.9631 9.106 99.5211 9.562 99.8691 10.15C100.229 10.726 100.409 11.386 100.409 12.13C100.409 12.862 100.229 13.534 99.8691 14.146C99.5091 14.758 98.9571 15.25 98.2131 15.622C97.4811 15.994 96.5511 16.18 95.4231 16.18Z" />
  </mask>
  <path
    d="M8.57799 16.18C7.59399 16.18 6.68799 16.024 5.85999 15.712C5.04399 15.388 4.32999 14.938 3.71799 14.362C3.10599 13.774 2.63199 13.084 2.29599 12.292C1.95999 11.5 1.79199 10.636 1.79199 9.7C1.79199 8.764 1.95999 7.9 2.29599 7.108C2.63199 6.316 3.10599 5.632 3.71799 5.056C4.34199 4.468 5.06799 4.018 5.89599 3.706C6.72399 3.382 7.62999 3.22 8.61399 3.22C9.68199 3.22 10.642 3.394 11.494 3.742C12.358 4.09 13.084 4.6 13.672 5.272L12.196 6.712C11.704 6.22 11.17 5.86 10.594 5.632C10.03 5.392 9.40599 5.272 8.72199 5.272C8.06199 5.272 7.44999 5.38 6.88599 5.596C6.32199 5.812 5.83599 6.118 5.42799 6.514C5.01999 6.91 4.70199 7.378 4.47399 7.918C4.25799 8.458 4.14999 9.052 4.14999 9.7C4.14999 10.336 4.25799 10.924 4.47399 11.464C4.70199 12.004 5.01999 12.478 5.42799 12.886C5.83599 13.282 6.31599 13.588 6.86799 13.804C7.41999 14.02 8.03199 14.128 8.70399 14.128C9.32799 14.128 9.92799 14.032 10.504 13.84C11.092 13.636 11.65 13.3 12.178 12.832L13.51 14.578C12.85 15.106 12.082 15.508 11.206 15.784C10.342 16.048 9.46599 16.18 8.57799 16.18ZM11.296 14.272V9.556H13.51V14.578L11.296 14.272Z"
    fill="black" />
  <path
    d="M20.7003 16.126C19.7163 16.126 18.8403 15.916 18.0723 15.496C17.3043 15.064 16.6983 14.476 16.2543 13.732C15.8103 12.988 15.5883 12.142 15.5883 11.194C15.5883 10.234 15.8103 9.388 16.2543 8.656C16.6983 7.912 17.3043 7.33 18.0723 6.91C18.8403 6.49 19.7163 6.28 20.7003 6.28C21.6963 6.28 22.5783 6.49 23.3463 6.91C24.1263 7.33 24.7323 7.906 25.1643 8.638C25.6083 9.37 25.8303 10.222 25.8303 11.194C25.8303 12.142 25.6083 12.988 25.1643 13.732C24.7323 14.476 24.1263 15.064 23.3463 15.496C22.5783 15.916 21.6963 16.126 20.7003 16.126ZM20.7003 14.2C21.2523 14.2 21.7443 14.08 22.1763 13.84C22.6083 13.6 22.9443 13.252 23.1843 12.796C23.4363 12.34 23.5623 11.806 23.5623 11.194C23.5623 10.57 23.4363 10.036 23.1843 9.592C22.9443 9.136 22.6083 8.788 22.1763 8.548C21.7443 8.308 21.2583 8.188 20.7183 8.188C20.1663 8.188 19.6743 8.308 19.2423 8.548C18.8223 8.788 18.4863 9.136 18.2343 9.592C17.9823 10.036 17.8563 10.57 17.8563 11.194C17.8563 11.806 17.9823 12.34 18.2343 12.796C18.4863 13.252 18.8223 13.6 19.2423 13.84C19.6743 14.08 20.1603 14.2 20.7003 14.2Z"
    fill="black" />
  <path
    d="M32.3019 16.126C31.3179 16.126 30.4419 15.916 29.6739 15.496C28.9059 15.064 28.2999 14.476 27.8559 13.732C27.4119 12.988 27.1899 12.142 27.1899 11.194C27.1899 10.234 27.4119 9.388 27.8559 8.656C28.2999 7.912 28.9059 7.33 29.6739 6.91C30.4419 6.49 31.3179 6.28 32.3019 6.28C33.2979 6.28 34.1799 6.49 34.9479 6.91C35.7279 7.33 36.3339 7.906 36.7659 8.638C37.2099 9.37 37.4319 10.222 37.4319 11.194C37.4319 12.142 37.2099 12.988 36.7659 13.732C36.3339 14.476 35.7279 15.064 34.9479 15.496C34.1799 15.916 33.2979 16.126 32.3019 16.126ZM32.3019 14.2C32.8539 14.2 33.3459 14.08 33.7779 13.84C34.2099 13.6 34.5459 13.252 34.7859 12.796C35.0379 12.34 35.1639 11.806 35.1639 11.194C35.1639 10.57 35.0379 10.036 34.7859 9.592C34.5459 9.136 34.2099 8.788 33.7779 8.548C33.3459 8.308 32.8599 8.188 32.3199 8.188C31.7679 8.188 31.2759 8.308 30.8439 8.548C30.4239 8.788 30.0879 9.136 29.8359 9.592C29.5839 10.036 29.4579 10.57 29.4579 11.194C29.4579 11.806 29.5839 12.34 29.8359 12.796C30.0879 13.252 30.4239 13.6 30.8439 13.84C31.2759 14.08 31.7619 14.2 32.3019 14.2Z"
    fill="black" />
  <path
    d="M43.6514 16.126C42.7274 16.126 41.8934 15.922 41.1494 15.514C40.4174 15.094 39.8414 14.518 39.4214 13.786C39.0014 13.054 38.7914 12.19 38.7914 11.194C38.7914 10.198 39.0014 9.334 39.4214 8.602C39.8414 7.87 40.4174 7.3 41.1494 6.892C41.8934 6.484 42.7274 6.28 43.6514 6.28C44.4554 6.28 45.1754 6.46 45.8114 6.82C46.4474 7.168 46.9514 7.702 47.3234 8.422C47.6954 9.142 47.8814 10.066 47.8814 11.194C47.8814 12.31 47.7014 13.234 47.3414 13.966C46.9814 14.686 46.4834 15.226 45.8474 15.586C45.2114 15.946 44.4794 16.126 43.6514 16.126ZM43.9214 14.2C44.4614 14.2 44.9414 14.08 45.3614 13.84C45.7934 13.6 46.1354 13.252 46.3874 12.796C46.6514 12.34 46.7834 11.806 46.7834 11.194C46.7834 10.57 46.6514 10.036 46.3874 9.592C46.1354 9.136 45.7934 8.788 45.3614 8.548C44.9414 8.308 44.4614 8.188 43.9214 8.188C43.3814 8.188 42.8954 8.308 42.4634 8.548C42.0434 8.788 41.7014 9.136 41.4374 9.592C41.1854 10.036 41.0594 10.57 41.0594 11.194C41.0594 11.806 41.1854 12.34 41.4374 12.796C41.7014 13.252 42.0434 13.6 42.4634 13.84C42.8954 14.08 43.3814 14.2 43.9214 14.2ZM46.8374 16V13.732L46.9274 11.176L46.7474 8.62V2.644H48.9794V16H46.8374Z"
    fill="black" />
  <path
    d="M57.3948 6.28C58.1628 6.28 58.8468 6.43 59.4468 6.73C60.0588 7.03 60.5388 7.492 60.8868 8.116C61.2348 8.728 61.4088 9.52 61.4088 10.492V16H59.1588V10.78C59.1588 9.928 58.9548 9.292 58.5468 8.872C58.1508 8.452 57.5928 8.242 56.8728 8.242C56.3448 8.242 55.8768 8.35 55.4688 8.566C55.0608 8.782 54.7428 9.106 54.5148 9.538C54.2988 9.958 54.1908 10.492 54.1908 11.14V16H51.9408V6.388H54.0828V8.98L53.7048 8.188C54.0408 7.576 54.5268 7.108 55.1628 6.784C55.8108 6.448 56.5548 6.28 57.3948 6.28Z"
    fill="black" />
  <path
    d="M68.7987 16.126C67.7307 16.126 66.7947 15.916 65.9907 15.496C65.1987 15.064 64.5807 14.476 64.1367 13.732C63.7047 12.988 63.4887 12.142 63.4887 11.194C63.4887 10.234 63.6987 9.388 64.1187 8.656C64.5507 7.912 65.1387 7.33 65.8827 6.91C66.6387 6.49 67.4967 6.28 68.4567 6.28C69.3927 6.28 70.2267 6.484 70.9587 6.892C71.6907 7.3 72.2667 7.876 72.6867 8.62C73.1067 9.364 73.3167 10.24 73.3167 11.248C73.3167 11.344 73.3107 11.452 73.2987 11.572C73.2987 11.692 73.2927 11.806 73.2807 11.914H65.2707V10.42H72.0927L71.2107 10.888C71.2227 10.336 71.1087 9.85 70.8687 9.43C70.6287 9.01 70.2987 8.68 69.8787 8.44C69.4707 8.2 68.9967 8.08 68.4567 8.08C67.9047 8.08 67.4187 8.2 66.9987 8.44C66.5907 8.68 66.2667 9.016 66.0267 9.448C65.7987 9.868 65.6847 10.366 65.6847 10.942V11.302C65.6847 11.878 65.8167 12.388 66.0807 12.832C66.3447 13.276 66.7167 13.618 67.1967 13.858C67.6767 14.098 68.2287 14.218 68.8527 14.218C69.3927 14.218 69.8787 14.134 70.3107 13.966C70.7427 13.798 71.1267 13.534 71.4627 13.174L72.6687 14.56C72.2367 15.064 71.6907 15.454 71.0307 15.73C70.3827 15.994 69.6387 16.126 68.7987 16.126Z"
    fill="black" />
  <path
    d="M77.4262 16L73.8982 6.388H76.0222L79.0462 14.866H78.0382L81.2062 6.388H83.0962L86.1742 14.866H85.1842L88.2982 6.388H90.2962L86.7502 16H84.5902L81.7822 8.494H82.4482L79.5862 16H77.4262Z"
    fill="black" />
  <path
    d="M95.4231 16.18C94.5351 16.18 93.6651 16.054 92.8131 15.802C91.9731 15.538 91.2651 15.178 90.6891 14.722L91.6791 12.904C92.1351 13.276 92.6871 13.576 93.3351 13.804C93.9951 14.032 94.6791 14.146 95.3871 14.146C96.2151 14.146 96.8631 13.972 97.3311 13.624C97.8111 13.276 98.0511 12.808 98.0511 12.22C98.0511 11.824 97.9491 11.476 97.7451 11.176C97.5531 10.876 97.2051 10.648 96.7011 10.492C96.2091 10.336 95.5311 10.258 94.6671 10.258H91.6251L92.2731 3.4H99.6711V5.362H93.1371C93.1371 5.362 94.2221 4.49199 94.3611 4.246C94.5 4 94 9 94 9.5C94 10 92.6511 8.278 92.6511 8.278H95.1891C96.4371 8.278 97.4391 8.446 98.1951 8.782C98.9631 9.106 99.5211 9.562 99.8691 10.15C100.229 10.726 100.409 11.386 100.409 12.13C100.409 12.862 100.229 13.534 99.8691 14.146C99.5091 14.758 98.9571 15.25 98.2131 15.622C97.4811 15.994 96.5511 16.18 95.4231 16.18Z"
    fill="black" />
  <path
    d="M5.85999 15.712L5.49096 16.6414L5.49914 16.6447L5.50738 16.6478L5.85999 15.712ZM3.71799 14.362L3.02513 15.0831L3.03263 15.0902L3.71799 14.362ZM2.29599 12.292L3.21657 11.9014L3.21657 11.9014L2.29599 12.292ZM2.29599 7.108L3.21657 7.49855L3.21657 7.49855L2.29599 7.108ZM3.71799 5.056L4.40336 5.7842L4.40379 5.78379L3.71799 5.056ZM5.89599 3.706L6.24863 4.64184L6.26039 4.63724L5.89599 3.706ZM11.494 3.742L11.1159 4.66776L11.1204 4.66958L11.494 3.742ZM13.672 5.272L14.3703 5.98778L15.0483 5.32633L14.4246 4.61349L13.672 5.272ZM12.196 6.712L11.4889 7.4191L12.1873 8.11754L12.8943 7.42778L12.196 6.712ZM10.594 5.632L10.2024 6.55215L10.2141 6.55713L10.2259 6.5618L10.594 5.632ZM6.88599 5.596L7.24364 6.52985L7.24364 6.52985L6.88599 5.596ZM4.47399 7.918L3.55274 7.52903L3.54905 7.53778L3.54552 7.54661L4.47399 7.918ZM4.47399 11.464L3.54552 11.8354L3.54905 11.8442L3.55274 11.853L4.47399 11.464ZM5.42799 12.886L4.72089 13.5931L4.72616 13.5984L4.73152 13.6036L5.42799 12.886ZM6.86799 13.804L7.23239 12.8728L7.23239 12.8728L6.86799 13.804ZM10.504 13.84L10.8202 14.7888L10.8318 14.7848L10.504 13.84ZM12.178 12.832L12.973 12.2255L12.3202 11.3697L11.5147 12.0837L12.178 12.832ZM13.51 14.578L14.1347 15.3589L14.51 15.0586V14.578H13.51ZM11.206 15.784L11.4982 16.7404L11.5065 16.7378L11.206 15.784ZM11.296 14.272H10.296V15.1433L11.1591 15.2626L11.296 14.272ZM11.296 9.556V8.556H10.296V9.556H11.296ZM13.51 9.556H14.51V8.556H13.51V9.556ZM18.0723 15.496L17.582 16.3676L17.5925 16.3734L18.0723 15.496ZM16.2543 13.732L15.3956 14.2445L15.3956 14.2445L16.2543 13.732ZM16.2543 8.656L17.1093 9.17462L17.113 9.16846L16.2543 8.656ZM18.0723 6.91L18.5521 7.78737L18.5521 7.78737L18.0723 6.91ZM23.3463 6.91L22.8665 7.78739L22.8722 7.79047L23.3463 6.91ZM25.1643 8.638L24.303 9.14629L24.3093 9.15661L25.1643 8.638ZM25.1643 13.732L24.3055 13.2195L24.2995 13.2299L25.1643 13.732ZM23.3463 15.496L23.8261 16.3734L23.8308 16.3708L23.3463 15.496ZM22.1763 13.84L21.6906 12.9658L21.6906 12.9658L22.1763 13.84ZM23.1843 12.796L22.309 12.3123L22.3041 12.3212L22.2994 12.3303L23.1843 12.796ZM23.1843 9.592L22.2994 10.0577L22.3068 10.0718L22.3146 10.0856L23.1843 9.592ZM22.1763 8.548L22.6619 7.67384L22.6619 7.67384L22.1763 8.548ZM19.2423 8.548L18.7566 7.67378L18.7461 7.67975L19.2423 8.548ZM18.2343 9.592L19.104 10.0856L19.1095 10.0757L18.2343 9.592ZM18.2343 12.796L17.359 13.2797L17.359 13.2797L18.2343 12.796ZM19.2423 13.84L18.7461 14.7083L18.7566 14.7142L19.2423 13.84ZM29.6739 15.496L29.1836 16.3676L29.194 16.3734L29.6739 15.496ZM27.8559 13.732L26.9971 14.2445L26.9971 14.2445L27.8559 13.732ZM27.8559 8.656L28.7109 9.17462L28.7146 9.16846L27.8559 8.656ZM29.6739 6.91L30.1537 7.78737L30.1537 7.78737L29.6739 6.91ZM34.9479 6.91L34.468 7.78739L34.4738 7.79047L34.9479 6.91ZM36.7659 8.638L35.9046 9.14629L35.9108 9.15661L36.7659 8.638ZM36.7659 13.732L35.9071 13.2195L35.9011 13.2299L36.7659 13.732ZM34.9479 15.496L35.4277 16.3734L35.4324 16.3708L34.9479 15.496ZM33.7779 13.84L33.2922 12.9658L33.2922 12.9658L33.7779 13.84ZM34.7859 12.796L33.9106 12.3123L33.9057 12.3212L33.9009 12.3303L34.7859 12.796ZM34.7859 9.592L33.9009 10.0577L33.9083 10.0718L33.9162 10.0856L34.7859 9.592ZM33.7779 8.548L34.2635 7.67384L34.2635 7.67384L33.7779 8.548ZM30.8439 8.548L30.3582 7.67378L30.3477 7.67975L30.8439 8.548ZM29.8359 9.592L30.7056 10.0856L30.7111 10.0757L29.8359 9.592ZM29.8359 12.796L28.9606 13.2797L28.9606 13.2797L29.8359 12.796ZM30.8439 13.84L30.3477 14.7083L30.3582 14.7142L30.8439 13.84ZM41.1494 15.514L40.6517 16.3814L40.6601 16.3862L40.6686 16.3908L41.1494 15.514ZM39.4214 13.786L38.554 14.2837L39.4214 13.786ZM39.4214 8.602L40.2888 9.09967L40.2888 9.09967L39.4214 8.602ZM41.1494 6.892L40.6686 6.01516L40.6626 6.01852L41.1494 6.892ZM45.8114 6.82L45.3188 7.69025L45.3251 7.6938L45.3314 7.69726L45.8114 6.82ZM47.3234 8.422L46.435 8.88102L46.435 8.88102L47.3234 8.422ZM47.3414 13.966L48.2359 14.4132L48.2388 14.4073L47.3414 13.966ZM45.3614 13.84L44.8757 12.9658L44.8653 12.9718L45.3614 13.84ZM46.3874 12.796L45.522 12.295L45.517 12.3036L45.5122 12.3123L46.3874 12.796ZM46.3874 9.592L45.5122 10.0757L45.5198 10.0895L45.5279 10.1031L46.3874 9.592ZM45.3614 8.548L44.8652 9.4163L44.8758 9.42215L45.3614 8.548ZM42.4634 8.548L41.9777 7.67378L41.9673 7.67975L42.4634 8.548ZM41.4374 9.592L40.572 9.09094L40.5677 9.09839L41.4374 9.592ZM41.4374 12.796L40.5622 13.2797L40.567 13.2884L40.572 13.297L41.4374 12.796ZM42.4634 13.84L41.9672 14.7083L41.9778 14.7142L42.4634 13.84ZM46.8374 16H45.8374V17H46.8374V16ZM46.8374 13.732L45.838 13.6968L45.8374 13.7144V13.732H46.8374ZM46.9274 11.176L47.9268 11.2112L47.9287 11.1584L47.9249 11.1057L46.9274 11.176ZM46.7474 8.62H45.7474V8.65517L45.7499 8.69025L46.7474 8.62ZM46.7474 2.644V1.644H45.7474V2.644H46.7474ZM48.9794 2.644H49.9794V1.644H48.9794V2.644ZM48.9794 16V17H49.9794V16H48.9794ZM59.4468 6.73L58.9996 7.62445L59.0067 7.62792L59.4468 6.73ZM60.8868 8.116L60.0134 8.60308L60.0175 8.6103L60.8868 8.116ZM61.4088 16V17H62.4088V16H61.4088ZM59.1588 16H58.1588V17H59.1588V16ZM58.5468 8.872L57.8192 9.55801L57.8244 9.56344L57.8296 9.56878L58.5468 8.872ZM55.4688 8.566L55.9367 9.44979L55.9367 9.44979L55.4688 8.566ZM54.5148 9.538L53.6304 9.07121L53.6255 9.08065L54.5148 9.538ZM54.1908 16V17H55.1908V16H54.1908ZM51.9408 16H50.9408V17H51.9408V16ZM51.9408 6.388V5.388H50.9408V6.388H51.9408ZM54.0828 6.388H55.0828V5.388H54.0828V6.388ZM54.0828 8.98L53.1804 9.41073L55.0828 8.98H54.0828ZM53.7048 8.188L52.8283 7.70674L52.5816 8.15609L52.8024 8.61873L53.7048 8.188ZM55.1628 6.784L55.6168 7.67506L55.6232 7.67175L55.1628 6.784ZM65.9907 15.496L65.5118 16.3739L65.5197 16.3782L65.5277 16.3823L65.9907 15.496ZM64.1367 13.732L63.2718 14.2342L63.278 14.2445L64.1367 13.732ZM64.1187 8.656L63.2539 8.15386L63.2513 8.15833L64.1187 8.656ZM65.8827 6.91L65.397 6.03582L65.3911 6.03917L65.8827 6.91ZM70.9587 6.892L71.4455 6.01852L71.4455 6.01852L70.9587 6.892ZM73.2987 11.572L72.3036 11.4725L72.2987 11.5221V11.572H73.2987ZM73.2807 11.914V12.914H74.1757L74.2746 12.0244L73.2807 11.914ZM65.2707 11.914H64.2707V12.914H65.2707V11.914ZM65.2707 10.42V9.42H64.2707V10.42H65.2707ZM72.0927 10.42L72.5614 11.3033L72.0927 9.42V10.42ZM71.2107 10.888L70.2109 10.8663L70.1739 12.5702L71.6794 11.7713L71.2107 10.888ZM70.8687 9.43L70.0004 9.92614L70.0004 9.92614L70.8687 9.43ZM69.8787 8.44L69.3716 9.302L69.3825 9.30824L69.8787 8.44ZM66.9987 8.44L66.5025 7.57169L66.4917 7.57806L66.9987 8.44ZM66.0267 9.448L65.1525 8.96233L65.1478 8.97091L66.0267 9.448ZM67.1967 13.858L66.7495 14.7524L66.7495 14.7524L67.1967 13.858ZM70.3107 13.966L70.6731 14.898L70.6731 14.898L70.3107 13.966ZM71.4627 13.174L72.2171 12.5176L71.4887 11.6805L70.7316 12.4917L71.4627 13.174ZM72.6687 14.56L73.4279 15.2108L73.99 14.5551L73.4231 13.9036L72.6687 14.56ZM71.0307 15.73L71.408 16.6561L71.4165 16.6526L71.0307 15.73ZM77.4262 16L76.4874 16.3446L76.728 17H77.4262V16ZM73.8982 6.388V5.388H72.4659L72.9594 6.73256L73.8982 6.388ZM76.0222 6.388L76.964 6.05204L76.7272 5.388H76.0222V6.388ZM79.0462 14.866V15.866H80.4646L79.988 14.53L79.0462 14.866ZM78.0382 14.866L77.1014 14.516L76.597 15.866H78.0382V14.866ZM81.2062 6.388V5.388H80.5123L80.2694 6.03796L81.2062 6.388ZM83.0962 6.388L84.0361 6.04674L83.797 5.388H83.0962V6.388ZM86.1742 14.866V15.866H87.6011L87.1141 14.5247L86.1742 14.866ZM85.1842 14.866L84.2455 14.5212L83.7515 15.866H85.1842V14.866ZM88.2982 6.388V5.388H87.6001L87.3595 6.04322L88.2982 6.388ZM90.2962 6.388L91.2344 6.73411L91.731 5.388H90.2962V6.388ZM86.7502 16V17H87.4471L87.6884 16.3461L86.7502 16ZM84.5902 16L83.6536 16.3504L83.8966 17H84.5902V16ZM81.7822 8.494V7.494H80.3404L80.8456 8.84438L81.7822 8.494ZM82.4482 8.494L83.3825 8.85027L83.8997 7.494H82.4482V8.494ZM79.5862 16V17H80.2751L80.5205 16.3563L79.5862 16ZM92.8131 15.802L92.5132 16.756L92.5213 16.7585L92.5294 16.7609L92.8131 15.802ZM90.6891 14.722L89.8108 14.2438L89.4081 14.9833L90.0684 15.506L90.6891 14.722ZM91.6791 12.904L92.3112 12.1291L91.3773 11.3672L90.8008 12.4258L91.6791 12.904ZM93.3351 13.804L93.0032 14.7473L93.0085 14.7492L93.3351 13.804ZM97.3311 13.624L96.7441 12.8143L96.7344 12.8215L97.3311 13.624ZM97.7451 11.176L96.9028 11.7151L96.9103 11.7268L96.9181 11.7383L97.7451 11.176ZM96.7011 10.492L96.3988 11.4453L96.4054 11.4473L96.7011 10.492ZM91.6251 10.258L90.6295 10.1639L90.5261 11.258H91.6251V10.258ZM92.2731 3.4V2.4H91.3631L91.2775 3.30593L92.2731 3.4ZM99.6711 3.4H100.671V2.4H99.6711V3.4ZM99.6711 5.362V6.362H100.671V5.362H99.6711ZM93.1371 5.362L92.5115 4.58181L90.2913 6.362H93.1371V5.362ZM92.6511 8.278V7.278H90.5974L91.8638 8.89467L92.6511 8.278ZM98.1951 8.782L97.7889 9.69581L97.7976 9.69967L97.8064 9.70336L98.1951 8.782ZM99.8691 10.15L99.0085 10.6593L99.0147 10.6697L99.0211 10.68L99.8691 10.15ZM99.8691 14.146L99.0071 13.639L99.0071 13.639L99.8691 14.146ZM98.2131 15.622L97.7659 14.7276L97.76 14.7305L98.2131 15.622ZM8.57799 15.18C7.70099 15.18 6.91596 15.0413 6.2126 14.7762L5.50738 16.6478C6.46003 17.0067 7.48699 17.18 8.57799 17.18V15.18ZM6.22903 14.7826C5.52489 14.503 4.91947 14.1195 4.40336 13.6338L3.03263 15.0902C3.74052 15.7564 4.56309 16.273 5.49096 16.6414L6.22903 14.7826ZM4.41082 13.6409C3.89766 13.1479 3.50052 12.5708 3.21657 11.9014L1.37541 12.6825C1.76346 13.5972 2.31432 14.4001 3.02517 15.0831L4.41082 13.6409ZM3.21657 11.9014C2.93744 11.2435 2.79199 10.5137 2.79199 9.7H0.791992C0.791992 10.7583 0.982545 11.7565 1.37541 12.6825L3.21657 11.9014ZM2.79199 9.7C2.79199 8.88629 2.93744 8.15651 3.21657 7.49855L1.37541 6.71745C0.982545 7.64349 0.791992 8.6417 0.791992 9.7H2.79199ZM3.21657 7.49855C3.49974 6.83108 3.89475 6.26289 4.40336 5.7842L3.03263 4.3278C2.31724 5.00111 1.76424 5.80091 1.37541 6.71745L3.21657 7.49855ZM4.40379 5.78379C4.92847 5.28938 5.54028 4.90867 6.2486 4.64177L5.54338 2.77023C4.59571 3.12732 3.75551 3.64662 3.03219 4.32821L4.40379 5.78379ZM6.26039 4.63724C6.96051 4.36328 7.74139 4.22 8.61399 4.22V2.22C7.5186 2.22 6.48748 2.40071 5.53159 2.77475L6.26039 4.63724ZM8.61399 4.22C9.57288 4.22 10.4016 4.37599 11.1159 4.66775L11.8721 2.81624C10.8824 2.412 9.79111 2.22 8.61399 2.22V4.22ZM11.1204 4.66958C11.8452 4.96151 12.4394 5.38186 12.9194 5.9305L14.4246 4.61349C13.7286 3.81813 12.8708 3.21849 11.8676 2.81441L11.1204 4.66958ZM12.9737 4.55622L11.4977 5.99622L12.8943 7.42778L14.3703 5.98778L12.9737 4.55622ZM12.9031 6.00489C12.3264 5.42818 11.6799 4.98633 10.962 4.70219L10.2259 6.5618C10.6601 6.73367 11.0816 7.01182 11.4889 7.4191L12.9031 6.00489ZM10.9855 4.71184C10.2841 4.41337 9.52493 4.272 8.72199 4.272V6.272C9.28705 6.272 9.77586 6.37063 10.2024 6.55215L10.9855 4.71184ZM8.72199 4.272C7.9511 4.272 7.21667 4.39853 6.52835 4.66214L7.24364 6.52985C7.68331 6.36147 8.17288 6.272 8.72199 6.272V4.272ZM6.52835 4.66214C5.84591 4.9235 5.24261 5.30036 4.73152 5.79642L6.12447 7.23158C6.42937 6.93564 6.79807 6.7005 7.24364 6.52985L6.52835 4.66214ZM4.73152 5.79642C4.22433 6.28869 3.83124 6.86944 3.55274 7.52903L5.39524 8.30697C5.57275 7.88656 5.81566 7.53131 6.12447 7.23158L4.73152 5.79642ZM3.54552 7.54661C3.27716 8.21748 3.14999 8.93928 3.14999 9.7H5.14999C5.14999 9.16471 5.23882 8.69851 5.40247 8.28939L3.54552 7.54661ZM3.14999 9.7C3.14999 10.4513 3.27803 11.1667 3.54552 11.8354L5.40247 11.0926C5.23796 10.6813 5.14999 10.2207 5.14999 9.7H3.14999ZM3.55274 11.853C3.83011 12.5099 4.22018 13.0924 4.72089 13.5931L6.1351 12.1789C5.81981 11.8636 5.57387 11.4981 5.39524 11.075L3.55274 11.853ZM4.73152 13.6036C5.23896 14.0961 5.83317 14.4729 6.50359 14.7352L7.23239 12.8728C6.79882 12.7031 6.43303 12.4679 6.12447 12.1684L4.73152 13.6036ZM6.50359 14.7352C7.18618 15.0023 7.92384 15.128 8.70399 15.128V13.128C8.14014 13.128 7.65381 13.0377 7.23239 12.8728L6.50359 14.7352ZM8.70399 15.128C9.43246 15.128 10.1394 15.0156 10.8202 14.7887L10.1878 12.8913C9.71656 13.0484 9.22353 13.128 8.70399 13.128V15.128ZM10.8318 14.7848C11.5588 14.5325 12.2284 14.1236 12.8413 13.5803L11.5147 12.0837C11.0716 12.4764 10.6252 12.7395 10.1762 12.8952L10.8318 14.7848ZM11.3829 13.4385L12.7149 15.1845L14.305 13.9715L12.973 12.2255L11.3829 13.4385ZM12.8853 13.7971C12.3298 14.2415 11.6739 14.5881 10.9055 14.8302L11.5065 16.7378C12.4901 16.4279 13.3702 15.9705 14.1347 15.3589L12.8853 13.7971ZM10.9138 14.8276C10.1428 15.0632 9.36523 15.18 8.57799 15.18V17.18C9.56675 17.18 10.5412 17.0328 11.4982 16.7403L10.9138 14.8276ZM12.296 14.272V9.556H10.296V14.272H12.296ZM11.296 10.556H13.51V8.556H11.296V10.556ZM12.51 9.556V14.578H14.51V9.556H12.51ZM13.6469 13.5874L11.4329 13.2814L11.1591 15.2626L13.3731 15.5686L13.6469 13.5874ZM20.7003 15.126C19.8628 15.126 19.1555 14.9486 18.5521 14.6186L17.5925 16.3734C18.5251 16.8834 19.5698 17.126 20.7003 17.126V15.126ZM18.5625 14.6244C17.9439 14.2764 17.466 13.8111 17.113 13.2195L15.3956 14.2445C15.9306 15.1409 16.6647 15.8516 17.582 16.3676L18.5625 14.6244ZM17.113 13.2195C16.7701 12.6449 16.5883 11.9791 16.5883 11.194H14.5883C14.5883 12.3049 14.8505 13.3311 15.3956 14.2445L17.113 13.2195ZM16.5883 11.194C16.5883 10.3941 16.7713 9.73187 17.1093 9.17461L15.3993 8.13739C14.8493 9.04413 14.5883 10.0739 14.5883 11.194H16.5883ZM17.113 9.16846C17.4645 8.57938 17.939 8.12266 18.5521 7.78737L17.5925 6.03263C16.6696 6.53734 15.932 7.24461 15.3956 8.14354L17.113 9.16846ZM18.5521 7.78737C19.1555 7.4574 19.8628 7.28 20.7003 7.28V5.28C19.5698 5.28 18.5251 5.52259 17.5925 6.03263L18.5521 7.78737ZM20.7003 7.28C21.552 7.28 22.2649 7.45836 22.8665 7.78737L23.8261 6.03263C22.8917 5.52164 21.8406 5.28 20.7003 5.28V7.28ZM22.8722 7.79047C23.4987 8.12784 23.9678 8.5781 24.3031 9.14625L26.0255 8.12974C25.4968 7.23389 24.7538 6.53216 23.8204 6.02953L22.8722 7.79047ZM24.3093 9.15661C24.6461 9.71194 24.8303 10.3796 24.8303 11.194H26.8303C26.8303 10.0644 26.5705 9.02805 26.0193 8.11939L24.3093 9.15661ZM24.8303 11.194C24.8303 11.9791 24.6485 12.6449 24.3056 13.2195L26.023 14.2445C26.5681 13.3311 26.8303 12.3049 26.8303 11.194H24.8303ZM24.2995 13.2299C23.9617 13.8117 23.4897 14.2734 22.8618 14.6212L23.8308 16.3708C24.7629 15.8546 25.5029 15.1403 26.0291 14.2341L24.2995 13.2299ZM22.8665 14.6186C22.2649 14.9476 21.552 15.126 20.7003 15.126V17.126C21.8406 17.126 22.8917 16.8844 23.8261 16.3734L22.8665 14.6186ZM20.7003 15.2C21.402 15.2 22.0646 15.046 22.6619 14.7142L21.6906 12.9658C21.424 13.114 21.1026 13.2 20.7003 13.2V15.2ZM22.6619 14.7142C23.2714 14.3756 23.7427 13.8821 24.0692 13.2617L22.2994 12.3303C22.1458 12.6219 21.9452 12.8244 21.6906 12.9658L22.6619 14.7142ZM24.0595 13.2797C24.4066 12.6516 24.5623 11.9455 24.5623 11.194H22.5623C22.5623 11.6665 22.466 12.0284 22.309 12.3123L24.0595 13.2797ZM24.5623 11.194C24.5623 10.4352 24.4085 9.72296 24.054 9.09839L22.3146 10.0856C22.4641 10.349 22.5623 10.7048 22.5623 11.194H24.5623ZM24.0692 9.12625C23.7427 8.50594 23.2714 8.01243 22.6619 7.67384L21.6906 9.42215C21.9452 9.56356 22.1458 9.76605 22.2994 10.0577L24.0692 9.12625ZM22.6619 7.67384C22.0679 7.3438 21.4121 7.188 20.7183 7.188V9.188C21.1045 9.188 21.4207 9.27219 21.6906 9.42215L22.6619 7.67384ZM20.7183 7.188C20.0166 7.188 19.354 7.342 18.7566 7.67384L19.7279 9.42215C19.9946 9.274 20.316 9.188 20.7183 9.188V7.188ZM18.7461 7.67975C18.1546 8.01776 17.6927 8.50463 17.359 9.10831L19.1095 10.0757C19.2799 9.76737 19.4899 9.55823 19.7384 9.41624L18.7461 7.67975ZM17.3646 9.09839C17.0101 9.72296 16.8563 10.4352 16.8563 11.194H18.8563C18.8563 10.7048 18.9545 10.349 19.104 10.0856L17.3646 9.09839ZM16.8563 11.194C16.8563 11.9455 17.012 12.6516 17.359 13.2797L19.1095 12.3123C18.9526 12.0284 18.8563 11.6665 18.8563 11.194H16.8563ZM17.359 13.2797C17.6927 13.8834 18.1546 14.3702 18.7461 14.7082L19.7384 12.9718C19.4899 12.8298 19.2799 12.6206 19.1095 12.3123L17.359 13.2797ZM18.7566 14.7142C19.3507 15.0442 20.0065 15.2 20.7003 15.2V13.2C20.3141 13.2 19.9979 13.1158 19.7279 12.9658L18.7566 14.7142ZM32.3019 15.126C31.4644 15.126 30.757 14.9486 30.1537 14.6186L29.194 16.3734C30.1267 16.8834 31.1713 17.126 32.3019 17.126V15.126ZM30.1641 14.6244C29.5454 14.2764 29.0676 13.8111 28.7146 13.2195L26.9971 14.2445C27.5321 15.1409 28.2663 15.8516 29.1836 16.3676L30.1641 14.6244ZM28.7146 13.2195C28.3716 12.6449 28.1899 11.9791 28.1899 11.194H26.1899C26.1899 12.3049 26.4521 13.3311 26.9971 14.2445L28.7146 13.2195ZM28.1899 11.194C28.1899 10.3941 28.3729 9.73187 28.7109 9.17461L27.0008 8.13739C26.4509 9.04413 26.1899 10.0739 26.1899 11.194H28.1899ZM28.7146 9.16846C29.0661 8.57938 29.5406 8.12265 30.1537 7.78737L29.194 6.03263C28.2711 6.53734 27.5336 7.24461 26.9971 8.14354L28.7146 9.16846ZM30.1537 7.78737C30.757 7.4574 31.4644 7.28 32.3019 7.28V5.28C31.1713 5.28 30.1267 5.52259 29.194 6.03263L30.1537 7.78737ZM32.3019 7.28C33.1536 7.28 33.8664 7.45836 34.468 7.78737L35.4277 6.03263C34.4933 5.52164 33.4421 5.28 32.3019 5.28V7.28ZM34.4738 7.79047C35.1003 8.12784 35.5693 8.5781 35.9046 9.14625L37.6271 8.12974C37.0984 7.23389 36.3554 6.53216 35.422 6.02953L34.4738 7.79047ZM35.9108 9.15661C36.2477 9.71194 36.4319 10.3796 36.4319 11.194H38.4319C38.4319 10.0644 38.172 9.02805 37.6209 8.11939L35.9108 9.15661ZM36.4319 11.194C36.4319 11.9791 36.2501 12.6449 35.9071 13.2195L37.6246 14.2445C38.1696 13.3311 38.4319 12.3049 38.4319 11.194H36.4319ZM35.9011 13.2299C35.5632 13.8117 35.0913 14.2734 34.4634 14.6212L35.4324 16.3708C36.3644 15.8546 37.1045 15.1403 37.6306 14.2341L35.9011 13.2299ZM34.468 14.6186C33.8664 14.9476 33.1536 15.126 32.3019 15.126V17.126C33.4421 17.126 34.4933 16.8844 35.4277 16.3734L34.468 14.6186ZM32.3019 15.2C33.0035 15.2 33.6662 15.046 34.2635 14.7142L33.2922 12.9658C33.0255 13.114 32.7042 13.2 32.3019 13.2V15.2ZM34.2635 14.7142C34.873 14.3756 35.3443 13.882 35.6708 13.2617L33.9009 12.3303C33.7474 12.6219 33.5467 12.8244 33.2922 12.9658L34.2635 14.7142ZM35.6611 13.2797C36.0082 12.6516 36.1639 11.9455 36.1639 11.194H34.1639C34.1639 11.6665 34.0675 12.0283 33.9106 12.3123L35.6611 13.2797ZM36.1639 11.194C36.1639 10.4352 36.01 9.72295 35.6555 9.09839L33.9162 10.0856C34.0657 10.349 34.1639 10.7048 34.1639 11.194H36.1639ZM35.6708 9.12625C35.3443 8.50595 34.873 8.01243 34.2635 7.67384L33.2922 9.42215C33.5467 9.56356 33.7474 9.76605 33.9009 10.0577L35.6708 9.12625ZM34.2635 7.67384C33.6694 7.3438 33.0136 7.188 32.3199 7.188V9.188C32.7061 9.188 33.0223 9.27219 33.2922 9.42215L34.2635 7.67384ZM32.3199 7.188C31.6182 7.188 30.9555 7.342 30.3582 7.67384L31.3295 9.42215C31.5962 9.274 31.9175 9.188 32.3199 9.188V7.188ZM30.3477 7.67975C29.7562 8.01776 29.2942 8.50463 28.9606 9.10831L30.7111 10.0757C30.8815 9.76737 31.0915 9.55823 31.34 9.41624L30.3477 7.67975ZM28.9662 9.09839C28.6117 9.72296 28.4579 10.4352 28.4579 11.194H30.4579C30.4579 10.7048 30.556 10.349 30.7055 10.0856L28.9662 9.09839ZM28.4579 11.194C28.4579 11.9455 28.6135 12.6516 28.9606 13.2797L30.7111 12.3123C30.5542 12.0284 30.4579 11.6665 30.4579 11.194H28.4579ZM28.9606 13.2797C29.2942 13.8834 29.7562 14.3702 30.3477 14.7082L31.34 12.9718C31.0915 12.8298 30.8815 12.6206 30.7111 12.3123L28.9606 13.2797ZM30.3582 14.7142C30.9523 15.0442 31.6081 15.2 32.3019 15.2V13.2C31.9156 13.2 31.5994 13.1158 31.3295 12.9658L30.3582 14.7142ZM43.6514 15.126C42.8802 15.126 42.214 14.9573 41.6302 14.6372L40.6686 16.3908C41.5728 16.8867 42.5747 17.126 43.6514 17.126V15.126ZM41.6471 14.6466C41.0689 14.3149 40.6205 13.8665 40.2888 13.2883L38.554 14.2837C39.0623 15.1695 39.7659 15.8731 40.6517 16.3814L41.6471 14.6466ZM40.2888 13.2883C39.9702 12.7331 39.7914 12.047 39.7914 11.194H37.7914C37.7914 12.333 38.0326 13.3749 38.554 14.2837L40.2888 13.2883ZM39.7914 11.194C39.7914 10.341 39.9702 9.65494 40.2888 9.09967L38.554 8.10433C38.0326 9.01306 37.7914 10.055 37.7914 11.194H39.7914ZM40.2888 9.09967C40.6191 8.52399 41.0641 8.08442 41.6363 7.76548L40.6626 6.01852C39.7708 6.51557 39.0637 7.21601 38.554 8.10433L40.2888 9.09967ZM41.6302 7.76881C42.214 7.4487 42.8802 7.28 43.6514 7.28V5.28C42.5747 5.28 41.5728 5.5193 40.6686 6.01518L41.6302 7.76881ZM43.6514 7.28C44.3005 7.28 44.8478 7.42363 45.3188 7.69025L46.304 5.94974C45.5031 5.49637 44.6103 5.28 43.6514 5.28V7.28ZM45.3314 7.69726C45.7724 7.93857 46.1432 8.31635 46.435 8.88102L48.2118 7.96298C47.7596 7.08764 47.1224 6.39742 46.2914 5.94273L45.3314 7.69726ZM46.435 8.88102C46.7107 9.41458 46.8814 10.1666 46.8814 11.194H48.8814C48.8814 9.96534 48.6802 8.86941 48.2118 7.96298L46.435 8.88102ZM46.8814 11.194C46.8814 12.2103 46.7164 12.9709 46.4441 13.5247L48.2388 14.4073C48.6864 13.4971 48.8814 12.4097 48.8814 11.194H46.8814ZM46.447 13.5188C46.1665 14.0798 45.8004 14.4635 45.3548 14.7157L46.34 16.4563C47.1665 15.9885 47.7963 15.2922 48.2358 14.4132L46.447 13.5188ZM45.3548 14.7157C44.8882 14.9799 44.3301 15.126 43.6514 15.126V17.126C44.6287 17.126 45.5347 16.9121 46.34 16.4563L45.3548 14.7157ZM43.9214 15.2C44.6148 15.2 45.2695 15.0443 45.8576 14.7082L44.8653 12.9718C44.6134 13.1157 44.3081 13.2 43.9214 13.2V15.2ZM45.8471 14.7142C46.452 14.3781 46.9251 13.8905 47.2627 13.2797L45.5122 12.3123C45.3457 12.6135 45.1348 12.8219 44.8758 12.9658L45.8471 14.7142ZM47.2528 13.297C47.6184 12.6657 47.7834 11.9532 47.7834 11.194H45.7834C45.7834 11.6588 45.6845 12.0143 45.522 12.295L47.2528 13.297ZM47.7834 11.194C47.7834 10.4276 47.6203 9.70886 47.2469 9.08092L45.5279 10.1031C45.6825 10.3631 45.7834 10.7124 45.7834 11.194H47.7834ZM47.2627 9.10831C46.9251 8.49753 46.452 8.00994 45.8471 7.67384L44.8758 9.42215C45.1348 9.56606 45.3457 9.77447 45.5122 10.0757L47.2627 9.10831ZM45.8576 7.67975C45.2695 7.3437 44.6148 7.188 43.9214 7.188V9.188C44.3081 9.188 44.6134 9.2723 44.8653 9.41624L45.8576 7.67975ZM43.9214 7.188C43.2276 7.188 42.5718 7.3438 41.9778 7.67384L42.9491 9.42216C43.219 9.27219 43.5352 9.188 43.9214 9.188V7.188ZM41.9673 7.67975C41.3804 8.01512 40.9163 8.49615 40.572 9.09096L42.3028 10.093C42.4865 9.77584 42.7064 9.56088 42.9596 9.41624L41.9673 7.67975ZM40.5677 9.09839C40.2132 9.72296 40.0594 10.4352 40.0594 11.194H42.0594C42.0594 10.7048 42.1576 10.349 42.3071 10.0856L40.5677 9.09839ZM40.0594 11.194C40.0594 11.9455 40.2151 12.6516 40.5622 13.2797L42.3127 12.3123C42.1557 12.0284 42.0594 11.6665 42.0594 11.194H40.0594ZM40.572 13.297C40.9163 13.8918 41.3804 14.3729 41.9673 14.7082L42.9596 12.9718C42.7064 12.8271 42.4865 12.6122 42.3028 12.295L40.572 13.297ZM41.9778 14.7142C42.5718 15.0442 43.2276 15.2 43.9214 15.2V13.2C43.5352 13.2 43.219 13.1158 42.9491 12.9658L41.9778 14.7142ZM47.8374 16V13.732H45.8374V16H47.8374ZM47.8368 13.7672L47.9268 11.2112L45.928 11.1408L45.838 13.6968L47.8368 13.7672ZM47.9249 11.1057L47.7449 8.54975L45.7499 8.69025L45.9299 11.2462L47.9249 11.1057ZM47.7474 8.62V2.644H45.7474V8.62H47.7474ZM46.7474 3.644H48.9794V1.644H46.7474V3.644ZM47.9794 2.644V16H49.9794V2.644H47.9794ZM48.9794 15H46.8374V17H48.9794V15ZM57.3948 7.28C58.0302 7.28 58.5574 7.40329 58.9996 7.62442L59.894 5.83557C59.1363 5.45671 58.2955 5.28 57.3948 5.28V7.28ZM59.0067 7.62792C59.4267 7.8338 59.7596 8.14784 60.0135 8.60307L61.7602 7.62893C61.3181 6.83616 60.691 6.2262 59.887 5.83208L59.0067 7.62792ZM60.0175 8.6103C60.2534 9.02505 60.4088 9.63039 60.4088 10.492H62.4088C62.4088 9.4096 62.2163 8.43095 61.7561 7.6217L60.0175 8.6103ZM60.4088 10.492V16H62.4088V10.492H60.4088ZM61.4088 15H59.1588V17H61.4088V15ZM60.1588 16V10.78H58.1588V16H60.1588ZM60.1588 10.78C60.1588 9.7857 59.9217 8.85209 59.2641 8.17521L57.8296 9.56878C57.988 9.73191 58.1588 10.0703 58.1588 10.78H60.1588ZM59.2744 8.18598C58.6448 7.51823 57.7956 7.242 56.8728 7.242V9.242C57.3901 9.242 57.6568 9.38577 57.8192 9.55801L59.2744 8.18598ZM56.8728 7.242C56.2054 7.242 55.5726 7.37955 55.0009 7.68221L55.9367 9.44979C56.181 9.32044 56.4843 9.242 56.8728 9.242V7.242ZM55.0009 7.68221C54.4048 7.99782 53.9465 8.47244 53.6305 9.07124L55.3992 10.0048C55.5392 9.73956 55.7169 9.56617 55.9367 9.44979L55.0009 7.68221ZM53.6255 9.08065C53.3149 9.68478 53.1908 10.389 53.1908 11.14H55.1908C55.1908 10.595 55.2828 10.2312 55.4041 9.99534L53.6255 9.08065ZM53.1908 11.14V16H55.1908V11.14H53.1908ZM54.1908 15H51.9408V17H54.1908V15ZM52.9408 16V6.388H50.9408V16H52.9408ZM51.9408 7.388H54.0828V5.388H51.9408V7.388ZM53.0828 6.388V8.98H55.0828V6.388H53.0828ZM54.9853 8.54927L54.6073 7.75727L52.8024 8.61873L53.1804 9.41073L54.9853 8.54927ZM54.5814 8.66926C54.8186 8.2373 55.1553 7.91011 55.6168 7.67504L54.7089 5.89296C53.8984 6.30588 53.2631 6.91469 52.8283 7.70674L54.5814 8.66926ZM55.6232 7.67175C56.1088 7.41992 56.6908 7.28 57.3948 7.28V5.28C56.4189 5.28 55.5128 5.47607 54.7025 5.89624L55.6232 7.67175ZM68.7987 15.126C67.8634 15.126 67.0914 14.9428 66.4537 14.6096L65.5277 16.3823C66.4979 16.8892 67.598 17.126 68.7987 17.126V15.126ZM66.4695 14.6181C65.8278 14.2681 65.3439 13.8035 64.9954 13.2195L63.278 14.2445C63.8175 15.1485 64.5696 15.8599 65.5118 16.3739L66.4695 14.6181ZM65.0015 13.2299C64.6669 12.6536 64.4887 11.9841 64.4887 11.194H62.4887C62.4887 12.2999 62.7425 13.3224 63.2719 14.2341L65.0015 13.2299ZM64.4887 11.194C64.4887 10.3842 64.6643 9.71434 64.986 9.15367L63.2513 8.15833C62.733 9.06165 62.4887 10.0838 62.4887 11.194H64.4887ZM64.9835 9.15813C65.3268 8.56692 65.7864 8.11269 66.3743 7.78082L65.3911 6.03917C64.491 6.54731 63.7746 7.25707 63.2539 8.15386L64.9835 9.15813ZM66.3683 7.78416C66.9599 7.45549 67.6475 7.28 68.4567 7.28V5.28C67.3458 5.28 66.3174 5.52451 65.397 6.03584L66.3683 7.78416ZM68.4567 7.28C69.2426 7.28 69.9055 7.44981 70.4718 7.76548L71.4455 6.01852C70.5479 5.51819 69.5428 5.28 68.4567 5.28V7.28ZM70.4718 7.76548C71.0399 8.0821 71.4844 8.52449 71.8159 9.11159L73.5575 8.1284C73.0489 7.2275 72.3415 6.51789 71.4455 6.01852L70.4718 7.76548ZM71.8159 9.11159C72.1371 9.68064 72.3167 10.3811 72.3167 11.248H74.3167C74.3167 10.0989 74.0763 9.04735 73.5575 8.1284L71.8159 9.11159ZM72.3167 11.248C72.3167 11.3037 72.3131 11.3776 72.3036 11.4725L74.2937 11.6715C74.3082 11.5264 74.3167 11.3843 74.3167 11.248H72.3167ZM72.2987 11.572C72.2987 11.6588 72.2943 11.7358 72.2868 11.8036L74.2746 12.0244C74.291 11.8762 74.2987 11.7252 74.2987 11.572H72.2987ZM73.2807 10.914H65.2707V12.914H73.2807V10.914ZM66.2707 11.914V10.42H64.2707V11.914H66.2707ZM65.2707 11.42H72.0927V9.42H65.2707V11.42ZM71.624 9.53665L70.742 10.0046L71.6794 11.7713L72.5614 11.3033L71.624 9.53665ZM72.2104 10.9097C72.2258 10.2025 72.0791 9.53262 71.7369 8.93386L70.0004 9.92614C70.1383 10.1674 70.2195 10.4695 70.2109 10.8663L72.2104 10.9097ZM71.7369 8.93386C71.4083 8.35882 70.9498 7.90034 70.3748 7.57175L69.3825 9.30824C69.6475 9.45965 69.849 9.66117 70.0004 9.92614L71.7369 8.93386ZM70.3857 7.57806C69.8034 7.23553 69.1494 7.08 68.4567 7.08V9.08C68.8439 9.08 69.138 9.16446 69.3717 9.30193L70.3857 7.57806ZM68.4567 7.08C67.7556 7.08 67.0939 7.23383 66.5025 7.57175L67.4948 9.30824C67.7435 9.16617 68.0538 9.08 68.4567 9.08V7.08ZM66.4917 7.57806C65.923 7.91257 65.4752 8.38159 65.1525 8.96235L66.9008 9.93364C67.0582 9.65041 67.2584 9.44742 67.5057 9.30193L66.4917 7.57806ZM65.1478 8.97091C64.8255 9.5646 64.6847 10.2334 64.6847 10.942H66.6847C66.6847 10.4986 66.7718 10.1714 66.9055 9.92509L65.1478 8.97091ZM64.6847 10.942V11.302H66.6847V10.942H64.6847ZM64.6847 11.302C64.6847 12.0367 64.8549 12.7272 65.2211 13.3431L66.9402 12.3209C66.7784 12.0488 66.6847 11.7193 66.6847 11.302H64.6847ZM65.2211 13.3431C65.587 13.9583 66.1052 14.4303 66.7495 14.7524L67.6439 12.9636C67.3282 12.8057 67.1024 12.5937 66.9402 12.3209L65.2211 13.3431ZM66.7495 14.7524C67.3893 15.0723 68.0987 15.218 68.8527 15.218V13.218C68.3587 13.218 67.9641 13.1237 67.6439 12.9636L66.7495 14.7524ZM68.8527 15.218C69.4965 15.218 70.1082 15.1177 70.6731 14.898L69.9482 13.034C69.6492 13.1503 69.2888 13.218 68.8527 13.218V15.218ZM70.6731 14.898C71.2539 14.6722 71.7617 14.3192 72.1937 13.8563L70.7316 12.4917C70.4916 12.7488 70.2315 12.9238 69.9482 13.034L70.6731 14.898ZM70.7083 13.8304L71.9143 15.2164L73.4231 13.9036L72.2171 12.5176L70.7083 13.8304ZM71.9094 13.9092C71.5868 14.2856 71.1723 14.5868 70.6449 14.8074L71.4165 16.6526C72.209 16.3211 72.8866 15.8423 73.4279 15.2108L71.9094 13.9092ZM70.6534 14.8039C70.1466 15.0104 69.5347 15.126 68.7987 15.126V17.126C69.7427 17.126 70.6187 16.9776 71.408 16.6561L70.6534 14.8039ZM78.3649 15.6554L74.8369 6.04343L72.9594 6.73256L76.4874 16.3446L78.3649 15.6554ZM73.8982 7.388H76.0222V5.388H73.8982V7.388ZM75.0803 6.72395L78.1043 15.202L79.988 14.53L76.964 6.05204L75.0803 6.72395ZM79.0462 13.866H78.0382V15.866H79.0462V13.866ZM78.9749 15.216L82.1429 6.73803L80.2694 6.03796L77.1014 14.516L78.9749 15.216ZM81.2062 7.388H83.0962V5.388H81.2062V7.388ZM82.1562 6.72926L85.2342 15.2073L87.1141 14.5247L84.0361 6.04674L82.1562 6.72926ZM86.1742 13.866H85.1842V15.866H86.1742V13.866ZM86.1228 15.2108L89.2368 6.73278L87.3595 6.04322L84.2455 14.5212L86.1228 15.2108ZM88.2982 7.388H90.2962V5.388H88.2982V7.388ZM89.358 6.04188L85.812 15.6539L87.6884 16.3461L91.2344 6.73411L89.358 6.04188ZM86.7502 15H84.5902V17H86.7502V15ZM85.5268 15.6496L82.7188 8.14361L80.8456 8.84438L83.6536 16.3504L85.5268 15.6496ZM81.7822 9.494H82.4482V7.494H81.7822V9.494ZM81.5138 8.13772L78.6518 15.6437L80.5205 16.3563L83.3825 8.85027L81.5138 8.13772ZM79.5862 15H77.4262V17H79.5862V15ZM95.4231 15.18C94.6312 15.18 93.8567 15.0678 93.0967 14.8431L92.5294 16.7609C93.4735 17.0402 94.439 17.18 95.4231 17.18V15.18ZM93.1129 14.848C92.3668 14.6135 91.7732 14.3048 91.3098 13.938L90.0684 15.506C90.757 16.0512 91.5793 16.4625 92.5132 16.756L93.1129 14.848ZM91.5673 15.2002L92.5573 13.3822L90.8008 12.4258L89.8108 14.2438L91.5673 15.2002ZM91.0469 13.6789C91.6061 14.135 92.264 14.4872 93.0032 14.7473L93.667 12.8607C93.1101 12.6648 92.664 12.417 92.3112 12.1291L91.0469 13.6789ZM93.0085 14.7492C93.7751 15.014 94.5695 15.146 95.3871 15.146V13.146C94.7886 13.146 94.2151 13.05 93.6616 12.8588L93.0085 14.7492ZM95.3871 15.146C96.3425 15.146 97.2283 14.9466 97.9278 14.4265L96.7344 12.8215C96.4979 12.9974 96.0876 13.146 95.3871 13.146V15.146ZM97.918 14.4336C98.6549 13.8994 99.0511 13.1316 99.0511 12.22H97.0511C97.0511 12.4844 96.9672 12.6526 96.7441 12.8144L97.918 14.4336ZM99.0511 12.22C99.0511 11.6426 98.8991 11.0947 98.572 10.6137L96.9181 11.7383C96.999 11.8573 97.0511 12.0053 97.0511 12.22H99.0511ZM98.5873 10.6369C98.2191 10.0616 97.6211 9.72997 96.9968 9.53671L96.4054 11.4473C96.789 11.566 96.887 11.6904 96.9028 11.7151L98.5873 10.6369ZM97.0033 9.53877C96.3698 9.33788 95.5744 9.258 94.6671 9.258V11.258C95.4877 11.258 96.0484 11.3341 96.3988 11.4452L97.0033 9.53877ZM94.6671 9.258H91.6251V11.258H94.6671V9.258ZM92.6206 10.3521L93.2686 3.49407L91.2775 3.30593L90.6295 10.1639L92.6206 10.3521ZM92.2731 4.4H99.6711V2.4H92.2731V4.4ZM98.6711 3.4V5.362H100.671V3.4H98.6711ZM99.6711 4.362H93.1371V6.362H99.6711V4.362ZM93.1371 5.362C93.7626 6.14218 93.7627 6.14216 93.7627 6.14213C93.7627 6.14211 93.7627 6.14208 93.7628 6.14205C93.7629 6.14199 93.7629 6.14192 93.763 6.14184C93.7633 6.14167 93.7635 6.14145 93.7639 6.14118C93.7646 6.14063 93.7655 6.13988 93.7667 6.13892C93.7691 6.137 93.7725 6.13428 93.7768 6.13078C93.7855 6.1238 93.7979 6.11374 93.8137 6.10098C93.8451 6.07547 93.8899 6.03906 93.9438 5.99471C94.0513 5.90634 94.1973 5.78488 94.349 5.6544C94.499 5.52546 94.663 5.38039 94.8029 5.2463C94.8726 5.17961 94.9445 5.10777 95.009 5.03671C95.0607 4.97973 95.1566 4.87088 95.2318 4.73776L93.4903 3.75424C93.5308 3.68261 93.5624 3.65476 93.5282 3.69244C93.5067 3.71605 93.4711 3.75254 93.4195 3.802C93.3169 3.90023 93.1836 4.01879 93.0449 4.13809C92.908 4.25586 92.7741 4.36728 92.6738 4.44972C92.6238 4.49078 92.5827 4.52426 92.5543 4.54729C92.5401 4.5588 92.5291 4.56767 92.5218 4.57355C92.5181 4.57649 92.5154 4.57868 92.5137 4.58007C92.5128 4.58077 92.5122 4.58126 92.5118 4.58156C92.5117 4.5817 92.5115 4.5818 92.5115 4.58184C92.5115 4.58186 92.5114 4.58187 92.5115 4.58187C92.5115 4.58186 92.5115 4.58185 92.5115 4.58185C92.5115 4.58183 92.5115 4.58181 93.1371 5.362ZM95.2318 4.73776C95.2155 4.76662 95.129 4.92409 94.945 5.05438C94.8396 5.12903 94.6604 5.22402 94.4194 5.23599C94.163 5.24872 93.9438 5.16221 93.7865 5.04846C93.5315 4.8642 93.4487 4.61976 93.4366 4.58648C93.4091 4.51059 93.398 4.44982 93.3942 4.42741C93.3818 4.35458 93.3857 4.31519 93.3854 4.37733C93.3852 4.45973 93.3788 4.61142 93.3652 4.83111C93.3386 5.26079 93.29 5.8683 93.2361 6.50957C93.1836 7.13578 93.1234 7.82439 93.0794 8.3503C93.0371 8.85666 93 9.32124 93 9.5H95C95 9.50272 95 9.4971 95.0007 9.47926C95.0013 9.46274 95.0024 9.44068 95.004 9.41247C95.0072 9.35594 95.0121 9.28261 95.0186 9.1932C95.0316 9.01461 95.0502 8.78356 95.0725 8.51677C95.118 7.97224 95.1741 7.33247 95.2291 6.67693C95.2829 6.03645 95.3333 5.40884 95.3614 4.95458C95.3751 4.7323 95.385 4.52981 95.3854 4.38391C95.3856 4.3319 95.386 4.20982 95.3656 4.09053C95.3598 4.0565 95.3465 3.98639 95.3164 3.90348C95.3018 3.86319 95.2161 3.61408 94.9581 3.42755C94.7991 3.31267 94.5783 3.22563 94.3202 3.23845C94.0775 3.25051 93.8965 3.34619 93.7892 3.42217C93.6015 3.55509 93.511 3.71768 93.4903 3.75424L95.2318 4.73776ZM93 9.5C93 9.44861 93.0033 9.23873 93.1522 9.01485C93.2348 8.89071 93.3539 8.77601 93.5088 8.69625C93.6599 8.61844 93.8063 8.59365 93.9213 8.59126C94.1278 8.58698 94.2702 8.65334 94.3034 8.66908C94.33 8.68168 94.3487 8.6926 94.3582 8.6985C94.3683 8.70466 94.3736 8.70852 94.3738 8.70869C94.3743 8.70899 94.3717 8.70716 94.366 8.70258C94.3604 8.69807 94.3527 8.69172 94.343 8.68326C94.3232 8.66606 94.2984 8.64329 94.2686 8.61445C94.2085 8.55628 94.1387 8.48368 94.0628 8.40088C93.911 8.23523 93.7549 8.05064 93.6339 7.9037C93.5741 7.83108 93.5244 7.76946 93.4899 7.72635C93.4727 7.70482 93.4594 7.688 93.4505 7.67683C93.4461 7.67125 93.4428 7.66708 93.4408 7.66446C93.4397 7.66315 93.439 7.66222 93.4386 7.66169C93.4384 7.66143 93.4382 7.66127 93.4382 7.6612C93.4382 7.66117 93.4382 7.66117 93.4382 7.66119C93.4382 7.6612 93.4382 7.66123 93.4382 7.66124C93.4383 7.66128 93.4383 7.66133 92.6511 8.278C91.8638 8.89467 91.8639 8.89473 91.8639 8.8948C91.864 8.89483 91.864 8.8949 91.8641 8.89496C91.8642 8.89509 91.8643 8.89524 91.8644 8.89542C91.8647 8.89577 91.8651 8.89623 91.8655 8.8968C91.8664 8.89792 91.8676 8.89945 91.8691 8.90139C91.8722 8.90525 91.8765 8.91069 91.8819 8.9176C91.8928 8.93141 91.9085 8.95109 91.9281 8.97568C91.9674 9.02479 92.0231 9.09379 92.0898 9.1748C92.2217 9.3351 92.4029 9.54977 92.5883 9.75211C92.7569 9.93607 92.9863 10.174 93.2046 10.3313C93.2643 10.3743 93.3475 10.4293 93.4476 10.4767C93.5322 10.5168 93.7194 10.5959 93.9628 10.5908C94.2673 10.5845 94.6046 10.4426 94.8175 10.1225C94.9862 9.86891 95 9.61389 95 9.5H93ZM92.6511 9.278H95.1891V7.278H92.6511V9.278ZM95.1891 9.278C96.3617 9.278 97.2089 9.43802 97.7889 9.69581L98.6012 7.86819C97.6692 7.45398 96.5125 7.278 95.1891 7.278V9.278ZM97.8064 9.70336C98.4213 9.96281 98.7918 10.2932 99.0085 10.6593L100.73 9.64068C100.25 8.83082 99.5048 8.24919 98.5838 7.86063L97.8064 9.70336ZM99.0211 10.68C99.2724 11.0821 99.4091 11.5549 99.4091 12.13H101.409C101.409 11.2171 101.186 10.3699 100.717 9.62L99.0211 10.68ZM99.4091 12.13C99.4091 12.6895 99.2739 13.1856 99.0071 13.639L100.731 14.653C101.184 13.8824 101.409 13.0345 101.409 12.13H99.4091ZM99.0071 13.639C98.7609 14.0576 98.3673 14.4268 97.7659 14.7276L98.6603 16.5164C99.5468 16.0732 100.257 15.4584 100.731 14.653L99.0071 13.639ZM97.76 14.7305C97.2108 15.0096 96.4494 15.18 95.4231 15.18V17.18C96.6528 17.18 97.7513 16.9784 98.6661 16.5135L97.76 14.7305Z"
    fill="black" mask="url(#path-1-outside-1_2_6)" />
  <mask id="path-3-outside-2_2_6" maskUnits="userSpaceOnUse" x="1.79199" y="0.643997" width="101" height="16"
    fill="black">
    <rect fill="white" x="1.79199" y="0.643997" width="101" height="16" />
    <path
      d="M9.57799 15.18C8.59399 15.18 7.68799 15.024 6.85999 14.712C6.04399 14.388 5.32999 13.938 4.71799 13.362C4.10599 12.774 3.63199 12.084 3.29599 11.292C2.95999 10.5 2.79199 9.636 2.79199 8.7C2.79199 7.764 2.95999 6.9 3.29599 6.108C3.63199 5.316 4.10599 4.632 4.71799 4.056C5.34199 3.468 6.06799 3.018 6.89599 2.706C7.72399 2.382 8.62999 2.22 9.61399 2.22C10.682 2.22 11.642 2.394 12.494 2.742C13.358 3.09 14.084 3.6 14.672 4.272L13.196 5.712C12.704 5.22 12.17 4.86 11.594 4.632C11.03 4.392 10.406 4.272 9.72199 4.272C9.06199 4.272 8.44999 4.38 7.88599 4.596C7.32199 4.812 6.83599 5.118 6.42799 5.514C6.01999 5.91 5.70199 6.378 5.47399 6.918C5.25799 7.458 5.14999 8.052 5.14999 8.7C5.14999 9.336 5.25799 9.924 5.47399 10.464C5.70199 11.004 6.01999 11.478 6.42799 11.886C6.83599 12.282 7.31599 12.588 7.86799 12.804C8.41999 13.02 9.03199 13.128 9.70399 13.128C10.328 13.128 10.928 13.032 11.504 12.84C12.092 12.636 12.65 12.3 13.178 11.832L14.51 13.578C13.85 14.106 13.082 14.508 12.206 14.784C11.342 15.048 10.466 15.18 9.57799 15.18ZM12.296 13.272V8.556H14.51V13.578L12.296 13.272Z" />
    <path
      d="M21.7003 15.126C20.7163 15.126 19.8403 14.916 19.0723 14.496C18.3043 14.064 17.6983 13.476 17.2543 12.732C16.8103 11.988 16.5883 11.142 16.5883 10.194C16.5883 9.234 16.8103 8.388 17.2543 7.656C17.6983 6.912 18.3043 6.33 19.0723 5.91C19.8403 5.49 20.7163 5.28 21.7003 5.28C22.6963 5.28 23.5783 5.49 24.3463 5.91C25.1263 6.33 25.7323 6.906 26.1643 7.638C26.6083 8.37 26.8303 9.222 26.8303 10.194C26.8303 11.142 26.6083 11.988 26.1643 12.732C25.7323 13.476 25.1263 14.064 24.3463 14.496C23.5783 14.916 22.6963 15.126 21.7003 15.126ZM21.7003 13.2C22.2523 13.2 22.7443 13.08 23.1763 12.84C23.6083 12.6 23.9443 12.252 24.1843 11.796C24.4363 11.34 24.5623 10.806 24.5623 10.194C24.5623 9.57 24.4363 9.036 24.1843 8.592C23.9443 8.136 23.6083 7.788 23.1763 7.548C22.7443 7.308 22.2583 7.188 21.7183 7.188C21.1663 7.188 20.6743 7.308 20.2423 7.548C19.8223 7.788 19.4863 8.136 19.2343 8.592C18.9823 9.036 18.8563 9.57 18.8563 10.194C18.8563 10.806 18.9823 11.34 19.2343 11.796C19.4863 12.252 19.8223 12.6 20.2423 12.84C20.6743 13.08 21.1603 13.2 21.7003 13.2Z" />
    <path
      d="M33.3019 15.126C32.3179 15.126 31.4419 14.916 30.6739 14.496C29.9059 14.064 29.2999 13.476 28.8559 12.732C28.4119 11.988 28.1899 11.142 28.1899 10.194C28.1899 9.234 28.4119 8.388 28.8559 7.656C29.2999 6.912 29.9059 6.33 30.6739 5.91C31.4419 5.49 32.3179 5.28 33.3019 5.28C34.2979 5.28 35.1799 5.49 35.9479 5.91C36.7279 6.33 37.3339 6.906 37.7659 7.638C38.2099 8.37 38.4319 9.222 38.4319 10.194C38.4319 11.142 38.2099 11.988 37.7659 12.732C37.3339 13.476 36.7279 14.064 35.9479 14.496C35.1799 14.916 34.2979 15.126 33.3019 15.126ZM33.3019 13.2C33.8539 13.2 34.3459 13.08 34.7779 12.84C35.2099 12.6 35.5459 12.252 35.7859 11.796C36.0379 11.34 36.1639 10.806 36.1639 10.194C36.1639 9.57 36.0379 9.036 35.7859 8.592C35.5459 8.136 35.2099 7.788 34.7779 7.548C34.3459 7.308 33.8599 7.188 33.3199 7.188C32.7679 7.188 32.2759 7.308 31.8439 7.548C31.4239 7.788 31.0879 8.136 30.8359 8.592C30.5839 9.036 30.4579 9.57 30.4579 10.194C30.4579 10.806 30.5839 11.34 30.8359 11.796C31.0879 12.252 31.4239 12.6 31.8439 12.84C32.2759 13.08 32.7619 13.2 33.3019 13.2Z" />
    <path
      d="M44.6514 15.126C43.7274 15.126 42.8934 14.922 42.1494 14.514C41.4174 14.094 40.8414 13.518 40.4214 12.786C40.0014 12.054 39.7914 11.19 39.7914 10.194C39.7914 9.198 40.0014 8.334 40.4214 7.602C40.8414 6.87 41.4174 6.3 42.1494 5.892C42.8934 5.484 43.7274 5.28 44.6514 5.28C45.4554 5.28 46.1754 5.46 46.8114 5.82C47.4474 6.168 47.9514 6.702 48.3234 7.422C48.6954 8.142 48.8814 9.066 48.8814 10.194C48.8814 11.31 48.7014 12.234 48.3414 12.966C47.9814 13.686 47.4834 14.226 46.8474 14.586C46.2114 14.946 45.4794 15.126 44.6514 15.126ZM44.9214 13.2C45.4614 13.2 45.9414 13.08 46.3614 12.84C46.7934 12.6 47.1354 12.252 47.3874 11.796C47.6514 11.34 47.7834 10.806 47.7834 10.194C47.7834 9.57 47.6514 9.036 47.3874 8.592C47.1354 8.136 46.7934 7.788 46.3614 7.548C45.9414 7.308 45.4614 7.188 44.9214 7.188C44.3814 7.188 43.8954 7.308 43.4634 7.548C43.0434 7.788 42.7014 8.136 42.4374 8.592C42.1854 9.036 42.0594 9.57 42.0594 10.194C42.0594 10.806 42.1854 11.34 42.4374 11.796C42.7014 12.252 43.0434 12.6 43.4634 12.84C43.8954 13.08 44.3814 13.2 44.9214 13.2ZM47.8374 15V12.732L47.9274 10.176L47.7474 7.62V1.644H49.9794V15H47.8374Z" />
    <path
      d="M58.3948 5.28C59.1628 5.28 59.8468 5.43 60.4468 5.73C61.0588 6.03 61.5388 6.492 61.8868 7.116C62.2348 7.728 62.4088 8.52 62.4088 9.492V15H60.1588V9.78C60.1588 8.928 59.9548 8.292 59.5468 7.872C59.1508 7.452 58.5928 7.242 57.8728 7.242C57.3448 7.242 56.8768 7.35 56.4688 7.566C56.0608 7.782 55.7428 8.106 55.5148 8.538C55.2988 8.958 55.1908 9.492 55.1908 10.14V15H52.9408V5.388H55.0828V7.98L54.7048 7.188C55.0408 6.576 55.5268 6.108 56.1628 5.784C56.8108 5.448 57.5548 5.28 58.3948 5.28Z" />
    <path
      d="M69.7987 15.126C68.7307 15.126 67.7947 14.916 66.9907 14.496C66.1987 14.064 65.5807 13.476 65.1367 12.732C64.7047 11.988 64.4887 11.142 64.4887 10.194C64.4887 9.234 64.6987 8.388 65.1187 7.656C65.5507 6.912 66.1387 6.33 66.8827 5.91C67.6387 5.49 68.4967 5.28 69.4567 5.28C70.3927 5.28 71.2267 5.484 71.9587 5.892C72.6907 6.3 73.2667 6.876 73.6867 7.62C74.1067 8.364 74.3167 9.24 74.3167 10.248C74.3167 10.344 74.3107 10.452 74.2987 10.572C74.2987 10.692 74.2927 10.806 74.2807 10.914H66.2707V9.42H73.0927L72.2107 9.888C72.2227 9.336 72.1087 8.85 71.8687 8.43C71.6287 8.01 71.2987 7.68 70.8787 7.44C70.4707 7.2 69.9967 7.08 69.4567 7.08C68.9047 7.08 68.4187 7.2 67.9987 7.44C67.5907 7.68 67.2667 8.016 67.0267 8.448C66.7987 8.868 66.6847 9.366 66.6847 9.942V10.302C66.6847 10.878 66.8167 11.388 67.0807 11.832C67.3447 12.276 67.7167 12.618 68.1967 12.858C68.6767 13.098 69.2287 13.218 69.8527 13.218C70.3927 13.218 70.8787 13.134 71.3107 12.966C71.7427 12.798 72.1267 12.534 72.4627 12.174L73.6687 13.56C73.2367 14.064 72.6907 14.454 72.0307 14.73C71.3827 14.994 70.6387 15.126 69.7987 15.126Z" />
    <path
      d="M78.4262 15L74.8982 5.388H77.0222L80.0462 13.866H79.0382L82.2062 5.388H84.0962L87.1742 13.866H86.1842L89.2982 5.388H91.2962L87.7502 15H85.5902L82.7822 7.494H83.4482L80.5862 15H78.4262Z" />
    <path
      d="M96.4231 15.18C95.5351 15.18 94.6651 15.054 93.8131 14.802C92.9731 14.538 92.2651 14.178 91.6891 13.722L92.6791 11.904C93.1351 12.276 93.6871 12.576 94.3351 12.804C94.9951 13.032 95.6791 13.146 96.3871 13.146C97.2151 13.146 97.8631 12.972 98.3311 12.624C98.8111 12.276 99.0511 11.808 99.0511 11.22C99.0511 10.824 98.9491 10.476 98.7451 10.176C98.5531 9.876 98.2051 9.648 97.7011 9.492C97.2091 9.336 96.5311 9.258 95.6671 9.258H92.6251L93.2731 2.4H100.671V4.362H94.1371C94.1371 4.362 95.2221 3.49199 95.3611 3.246C95.5 3 95 8 95 8.5C95 9 93.6511 7.278 93.6511 7.278H96.1891C97.4371 7.278 98.4391 7.446 99.1951 7.782C99.9631 8.106 100.521 8.562 100.869 9.15C101.229 9.726 101.409 10.386 101.409 11.13C101.409 11.862 101.229 12.534 100.869 13.146C100.509 13.758 99.9571 14.25 99.2131 14.622C98.4811 14.994 97.5511 15.18 96.4231 15.18Z" />
  </mask>
  <path
    d="M9.57799 15.18C8.59399 15.18 7.68799 15.024 6.85999 14.712C6.04399 14.388 5.32999 13.938 4.71799 13.362C4.10599 12.774 3.63199 12.084 3.29599 11.292C2.95999 10.5 2.79199 9.636 2.79199 8.7C2.79199 7.764 2.95999 6.9 3.29599 6.108C3.63199 5.316 4.10599 4.632 4.71799 4.056C5.34199 3.468 6.06799 3.018 6.89599 2.706C7.72399 2.382 8.62999 2.22 9.61399 2.22C10.682 2.22 11.642 2.394 12.494 2.742C13.358 3.09 14.084 3.6 14.672 4.272L13.196 5.712C12.704 5.22 12.17 4.86 11.594 4.632C11.03 4.392 10.406 4.272 9.72199 4.272C9.06199 4.272 8.44999 4.38 7.88599 4.596C7.32199 4.812 6.83599 5.118 6.42799 5.514C6.01999 5.91 5.70199 6.378 5.47399 6.918C5.25799 7.458 5.14999 8.052 5.14999 8.7C5.14999 9.336 5.25799 9.924 5.47399 10.464C5.70199 11.004 6.01999 11.478 6.42799 11.886C6.83599 12.282 7.31599 12.588 7.86799 12.804C8.41999 13.02 9.03199 13.128 9.70399 13.128C10.328 13.128 10.928 13.032 11.504 12.84C12.092 12.636 12.65 12.3 13.178 11.832L14.51 13.578C13.85 14.106 13.082 14.508 12.206 14.784C11.342 15.048 10.466 15.18 9.57799 15.18ZM12.296 13.272V8.556H14.51V13.578L12.296 13.272Z"
    fill="#CAF7FA" />
  <path
    d="M21.7003 15.126C20.7163 15.126 19.8403 14.916 19.0723 14.496C18.3043 14.064 17.6983 13.476 17.2543 12.732C16.8103 11.988 16.5883 11.142 16.5883 10.194C16.5883 9.234 16.8103 8.388 17.2543 7.656C17.6983 6.912 18.3043 6.33 19.0723 5.91C19.8403 5.49 20.7163 5.28 21.7003 5.28C22.6963 5.28 23.5783 5.49 24.3463 5.91C25.1263 6.33 25.7323 6.906 26.1643 7.638C26.6083 8.37 26.8303 9.222 26.8303 10.194C26.8303 11.142 26.6083 11.988 26.1643 12.732C25.7323 13.476 25.1263 14.064 24.3463 14.496C23.5783 14.916 22.6963 15.126 21.7003 15.126ZM21.7003 13.2C22.2523 13.2 22.7443 13.08 23.1763 12.84C23.6083 12.6 23.9443 12.252 24.1843 11.796C24.4363 11.34 24.5623 10.806 24.5623 10.194C24.5623 9.57 24.4363 9.036 24.1843 8.592C23.9443 8.136 23.6083 7.788 23.1763 7.548C22.7443 7.308 22.2583 7.188 21.7183 7.188C21.1663 7.188 20.6743 7.308 20.2423 7.548C19.8223 7.788 19.4863 8.136 19.2343 8.592C18.9823 9.036 18.8563 9.57 18.8563 10.194C18.8563 10.806 18.9823 11.34 19.2343 11.796C19.4863 12.252 19.8223 12.6 20.2423 12.84C20.6743 13.08 21.1603 13.2 21.7003 13.2Z"
    fill="#CAF7FA" />
  <path
    d="M33.3019 15.126C32.3179 15.126 31.4419 14.916 30.6739 14.496C29.9059 14.064 29.2999 13.476 28.8559 12.732C28.4119 11.988 28.1899 11.142 28.1899 10.194C28.1899 9.234 28.4119 8.388 28.8559 7.656C29.2999 6.912 29.9059 6.33 30.6739 5.91C31.4419 5.49 32.3179 5.28 33.3019 5.28C34.2979 5.28 35.1799 5.49 35.9479 5.91C36.7279 6.33 37.3339 6.906 37.7659 7.638C38.2099 8.37 38.4319 9.222 38.4319 10.194C38.4319 11.142 38.2099 11.988 37.7659 12.732C37.3339 13.476 36.7279 14.064 35.9479 14.496C35.1799 14.916 34.2979 15.126 33.3019 15.126ZM33.3019 13.2C33.8539 13.2 34.3459 13.08 34.7779 12.84C35.2099 12.6 35.5459 12.252 35.7859 11.796C36.0379 11.34 36.1639 10.806 36.1639 10.194C36.1639 9.57 36.0379 9.036 35.7859 8.592C35.5459 8.136 35.2099 7.788 34.7779 7.548C34.3459 7.308 33.8599 7.188 33.3199 7.188C32.7679 7.188 32.2759 7.308 31.8439 7.548C31.4239 7.788 31.0879 8.136 30.8359 8.592C30.5839 9.036 30.4579 9.57 30.4579 10.194C30.4579 10.806 30.5839 11.34 30.8359 11.796C31.0879 12.252 31.4239 12.6 31.8439 12.84C32.2759 13.08 32.7619 13.2 33.3019 13.2Z"
    fill="#CAF7FA" />
  <path
    d="M44.6514 15.126C43.7274 15.126 42.8934 14.922 42.1494 14.514C41.4174 14.094 40.8414 13.518 40.4214 12.786C40.0014 12.054 39.7914 11.19 39.7914 10.194C39.7914 9.198 40.0014 8.334 40.4214 7.602C40.8414 6.87 41.4174 6.3 42.1494 5.892C42.8934 5.484 43.7274 5.28 44.6514 5.28C45.4554 5.28 46.1754 5.46 46.8114 5.82C47.4474 6.168 47.9514 6.702 48.3234 7.422C48.6954 8.142 48.8814 9.066 48.8814 10.194C48.8814 11.31 48.7014 12.234 48.3414 12.966C47.9814 13.686 47.4834 14.226 46.8474 14.586C46.2114 14.946 45.4794 15.126 44.6514 15.126ZM44.9214 13.2C45.4614 13.2 45.9414 13.08 46.3614 12.84C46.7934 12.6 47.1354 12.252 47.3874 11.796C47.6514 11.34 47.7834 10.806 47.7834 10.194C47.7834 9.57 47.6514 9.036 47.3874 8.592C47.1354 8.136 46.7934 7.788 46.3614 7.548C45.9414 7.308 45.4614 7.188 44.9214 7.188C44.3814 7.188 43.8954 7.308 43.4634 7.548C43.0434 7.788 42.7014 8.136 42.4374 8.592C42.1854 9.036 42.0594 9.57 42.0594 10.194C42.0594 10.806 42.1854 11.34 42.4374 11.796C42.7014 12.252 43.0434 12.6 43.4634 12.84C43.8954 13.08 44.3814 13.2 44.9214 13.2ZM47.8374 15V12.732L47.9274 10.176L47.7474 7.62V1.644H49.9794V15H47.8374Z"
    fill="#CAF7FA" />
  <path
    d="M58.3948 5.28C59.1628 5.28 59.8468 5.43 60.4468 5.73C61.0588 6.03 61.5388 6.492 61.8868 7.116C62.2348 7.728 62.4088 8.52 62.4088 9.492V15H60.1588V9.78C60.1588 8.928 59.9548 8.292 59.5468 7.872C59.1508 7.452 58.5928 7.242 57.8728 7.242C57.3448 7.242 56.8768 7.35 56.4688 7.566C56.0608 7.782 55.7428 8.106 55.5148 8.538C55.2988 8.958 55.1908 9.492 55.1908 10.14V15H52.9408V5.388H55.0828V7.98L54.7048 7.188C55.0408 6.576 55.5268 6.108 56.1628 5.784C56.8108 5.448 57.5548 5.28 58.3948 5.28Z"
    fill="#CAF7FA" />
  <path
    d="M69.7987 15.126C68.7307 15.126 67.7947 14.916 66.9907 14.496C66.1987 14.064 65.5807 13.476 65.1367 12.732C64.7047 11.988 64.4887 11.142 64.4887 10.194C64.4887 9.234 64.6987 8.388 65.1187 7.656C65.5507 6.912 66.1387 6.33 66.8827 5.91C67.6387 5.49 68.4967 5.28 69.4567 5.28C70.3927 5.28 71.2267 5.484 71.9587 5.892C72.6907 6.3 73.2667 6.876 73.6867 7.62C74.1067 8.364 74.3167 9.24 74.3167 10.248C74.3167 10.344 74.3107 10.452 74.2987 10.572C74.2987 10.692 74.2927 10.806 74.2807 10.914H66.2707V9.42H73.0927L72.2107 9.888C72.2227 9.336 72.1087 8.85 71.8687 8.43C71.6287 8.01 71.2987 7.68 70.8787 7.44C70.4707 7.2 69.9967 7.08 69.4567 7.08C68.9047 7.08 68.4187 7.2 67.9987 7.44C67.5907 7.68 67.2667 8.016 67.0267 8.448C66.7987 8.868 66.6847 9.366 66.6847 9.942V10.302C66.6847 10.878 66.8167 11.388 67.0807 11.832C67.3447 12.276 67.7167 12.618 68.1967 12.858C68.6767 13.098 69.2287 13.218 69.8527 13.218C70.3927 13.218 70.8787 13.134 71.3107 12.966C71.7427 12.798 72.1267 12.534 72.4627 12.174L73.6687 13.56C73.2367 14.064 72.6907 14.454 72.0307 14.73C71.3827 14.994 70.6387 15.126 69.7987 15.126Z"
    fill="#CAF7FA" />
  <path
    d="M78.4262 15L74.8982 5.388H77.0222L80.0462 13.866H79.0382L82.2062 5.388H84.0962L87.1742 13.866H86.1842L89.2982 5.388H91.2962L87.7502 15H85.5902L82.7822 7.494H83.4482L80.5862 15H78.4262Z"
    fill="#CAF7FA" />
  <path
    d="M96.4231 15.18C95.5351 15.18 94.6651 15.054 93.8131 14.802C92.9731 14.538 92.2651 14.178 91.6891 13.722L92.6791 11.904C93.1351 12.276 93.6871 12.576 94.3351 12.804C94.9951 13.032 95.6791 13.146 96.3871 13.146C97.2151 13.146 97.8631 12.972 98.3311 12.624C98.8111 12.276 99.0511 11.808 99.0511 11.22C99.0511 10.824 98.9491 10.476 98.7451 10.176C98.5531 9.876 98.2051 9.648 97.7011 9.492C97.2091 9.336 96.5311 9.258 95.6671 9.258H92.6251L93.2731 2.4H100.671V4.362H94.1371C94.1371 4.362 95.2221 3.49199 95.3611 3.246C95.5 3 95 8 95 8.5C95 9 93.6511 7.278 93.6511 7.278H96.1891C97.4371 7.278 98.4391 7.446 99.1951 7.782C99.9631 8.106 100.521 8.562 100.869 9.15C101.229 9.726 101.409 10.386 101.409 11.13C101.409 11.862 101.229 12.534 100.869 13.146C100.509 13.758 99.9571 14.25 99.2131 14.622C98.4811 14.994 97.5511 15.18 96.4231 15.18Z"
    fill="#CAF7FA" />
  <path
    d="M6.85999 14.712L6.49096 15.6414L6.49914 15.6447L6.50738 15.6478L6.85999 14.712ZM4.71799 13.362L4.02513 14.0831L4.03263 14.0902L4.71799 13.362ZM3.29599 11.292L4.21657 10.9014L4.21657 10.9014L3.29599 11.292ZM3.29599 6.108L4.21657 6.49855L4.21657 6.49855L3.29599 6.108ZM4.71799 4.056L5.40336 4.7842L5.40379 4.78379L4.71799 4.056ZM6.89599 2.706L7.24863 3.64184L7.26039 3.63724L6.89599 2.706ZM12.494 2.742L12.1159 3.66776L12.1204 3.66958L12.494 2.742ZM14.672 4.272L15.3703 4.98778L16.0483 4.32633L15.4246 3.61349L14.672 4.272ZM13.196 5.712L12.4889 6.4191L13.1873 7.11754L13.8943 6.42778L13.196 5.712ZM11.594 4.632L11.2024 5.55215L11.2141 5.55713L11.2259 5.5618L11.594 4.632ZM7.88599 4.596L8.24364 5.52985L8.24364 5.52985L7.88599 4.596ZM5.47399 6.918L4.55274 6.52903L4.54905 6.53778L4.54552 6.54661L5.47399 6.918ZM5.47399 10.464L4.54552 10.8354L4.54905 10.8442L4.55274 10.853L5.47399 10.464ZM6.42799 11.886L5.72089 12.5931L5.72616 12.5984L5.73152 12.6036L6.42799 11.886ZM7.86799 12.804L8.23239 11.8728L8.23239 11.8728L7.86799 12.804ZM11.504 12.84L11.8202 13.7888L11.8318 13.7848L11.504 12.84ZM13.178 11.832L13.973 11.2255L13.3202 10.3697L12.5147 11.0837L13.178 11.832ZM14.51 13.578L15.1347 14.3589L15.51 14.0586V13.578H14.51ZM12.206 14.784L12.4982 15.7404L12.5065 15.7378L12.206 14.784ZM12.296 13.272H11.296V14.1433L12.1591 14.2626L12.296 13.272ZM12.296 8.556V7.556H11.296V8.556H12.296ZM14.51 8.556H15.51V7.556H14.51V8.556ZM19.0723 14.496L18.582 15.3676L18.5925 15.3734L19.0723 14.496ZM17.2543 12.732L16.3956 13.2445L16.3956 13.2445L17.2543 12.732ZM17.2543 7.656L18.1093 8.17462L18.113 8.16846L17.2543 7.656ZM19.0723 5.91L19.5521 6.78737L19.5521 6.78737L19.0723 5.91ZM24.3463 5.91L23.8665 6.78739L23.8722 6.79047L24.3463 5.91ZM26.1643 7.638L25.303 8.14629L25.3093 8.15661L26.1643 7.638ZM26.1643 12.732L25.3055 12.2195L25.2995 12.2299L26.1643 12.732ZM24.3463 14.496L24.8261 15.3734L24.8308 15.3708L24.3463 14.496ZM23.1763 12.84L22.6906 11.9658L22.6906 11.9658L23.1763 12.84ZM24.1843 11.796L23.309 11.3123L23.3041 11.3212L23.2994 11.3303L24.1843 11.796ZM24.1843 8.592L23.2994 9.05774L23.3068 9.07179L23.3146 9.0856L24.1843 8.592ZM23.1763 7.548L23.6619 6.67384L23.6619 6.67384L23.1763 7.548ZM20.2423 7.548L19.7566 6.67378L19.7461 6.67975L20.2423 7.548ZM19.2343 8.592L20.104 9.08564L20.1095 9.07568L19.2343 8.592ZM19.2343 11.796L18.359 12.2797L18.359 12.2797L19.2343 11.796ZM20.2423 12.84L19.7461 13.7083L19.7566 13.7142L20.2423 12.84ZM30.6739 14.496L30.1836 15.3676L30.194 15.3734L30.6739 14.496ZM28.8559 12.732L27.9971 13.2445L27.9971 13.2445L28.8559 12.732ZM28.8559 7.656L29.7109 8.17462L29.7146 8.16846L28.8559 7.656ZM30.6739 5.91L31.1537 6.78737L31.1537 6.78737L30.6739 5.91ZM35.9479 5.91L35.468 6.78739L35.4738 6.79047L35.9479 5.91ZM37.7659 7.638L36.9046 8.14629L36.9108 8.15661L37.7659 7.638ZM37.7659 12.732L36.9071 12.2195L36.9011 12.2299L37.7659 12.732ZM35.9479 14.496L36.4277 15.3734L36.4324 15.3708L35.9479 14.496ZM34.7779 12.84L34.2922 11.9658L34.2922 11.9658L34.7779 12.84ZM35.7859 11.796L34.9106 11.3123L34.9057 11.3212L34.9009 11.3303L35.7859 11.796ZM35.7859 8.592L34.9009 9.05774L34.9083 9.07179L34.9162 9.0856L35.7859 8.592ZM34.7779 7.548L35.2635 6.67384L35.2635 6.67384L34.7779 7.548ZM31.8439 7.548L31.3582 6.67378L31.3477 6.67975L31.8439 7.548ZM30.8359 8.592L31.7056 9.08564L31.7111 9.07568L30.8359 8.592ZM30.8359 11.796L29.9606 12.2797L29.9606 12.2797L30.8359 11.796ZM31.8439 12.84L31.3477 13.7083L31.3582 13.7142L31.8439 12.84ZM42.1494 14.514L41.6517 15.3814L41.6601 15.3862L41.6686 15.3908L42.1494 14.514ZM40.4214 12.786L39.554 13.2837L40.4214 12.786ZM40.4214 7.602L41.2888 8.09967L41.2888 8.09967L40.4214 7.602ZM42.1494 5.892L41.6686 5.01516L41.6626 5.01852L42.1494 5.892ZM46.8114 5.82L46.3188 6.69025L46.3251 6.6938L46.3314 6.69726L46.8114 5.82ZM48.3234 7.422L47.435 7.88102L47.435 7.88102L48.3234 7.422ZM48.3414 12.966L49.2359 13.4132L49.2388 13.4073L48.3414 12.966ZM46.3614 12.84L45.8757 11.9658L45.8653 11.9718L46.3614 12.84ZM47.3874 11.796L46.522 11.295L46.517 11.3036L46.5122 11.3123L47.3874 11.796ZM47.3874 8.592L46.5122 9.07568L46.5198 9.0895L46.5279 9.10307L47.3874 8.592ZM46.3614 7.548L45.8652 8.4163L45.8758 8.42215L46.3614 7.548ZM43.4634 7.548L42.9777 6.67378L42.9673 6.67975L43.4634 7.548ZM42.4374 8.592L41.572 8.09094L41.5677 8.09839L42.4374 8.592ZM42.4374 11.796L41.5622 12.2797L41.567 12.2884L41.572 12.297L42.4374 11.796ZM43.4634 12.84L42.9672 13.7083L42.9778 13.7142L43.4634 12.84ZM47.8374 15H46.8374V16H47.8374V15ZM47.8374 12.732L46.838 12.6968L46.8374 12.7144V12.732H47.8374ZM47.9274 10.176L48.9268 10.2112L48.9287 10.1584L48.9249 10.1057L47.9274 10.176ZM47.7474 7.62H46.7474V7.65517L46.7499 7.69025L47.7474 7.62ZM47.7474 1.644V0.643997H46.7474V1.644H47.7474ZM49.9794 1.644H50.9794V0.643997H49.9794V1.644ZM49.9794 15V16H50.9794V15H49.9794ZM60.4468 5.73L59.9996 6.62445L60.0067 6.62792L60.4468 5.73ZM61.8868 7.116L61.0134 7.60308L61.0175 7.6103L61.8868 7.116ZM62.4088 15V16H63.4088V15H62.4088ZM60.1588 15H59.1588V16H60.1588V15ZM59.5468 7.872L58.8192 8.55801L58.8244 8.56344L58.8296 8.56878L59.5468 7.872ZM56.4688 7.566L56.9367 8.44979L56.9367 8.44979L56.4688 7.566ZM55.5148 8.538L54.6304 8.07121L54.6255 8.08065L55.5148 8.538ZM55.1908 15V16H56.1908V15H55.1908ZM52.9408 15H51.9408V16H52.9408V15ZM52.9408 5.388V4.388H51.9408V5.388H52.9408ZM55.0828 5.388H56.0828V4.388H55.0828V5.388ZM55.0828 7.98L54.1804 8.41073L56.0828 7.98H55.0828ZM54.7048 7.188L53.8283 6.70674L53.5816 7.15609L53.8024 7.61873L54.7048 7.188ZM56.1628 5.784L56.6168 6.67506L56.6232 6.67175L56.1628 5.784ZM66.9907 14.496L66.5118 15.3739L66.5197 15.3782L66.5277 15.3823L66.9907 14.496ZM65.1367 12.732L64.2718 13.2342L64.278 13.2445L65.1367 12.732ZM65.1187 7.656L64.2539 7.15386L64.2513 7.15833L65.1187 7.656ZM66.8827 5.91L66.397 5.03582L66.3911 5.03917L66.8827 5.91ZM71.9587 5.892L72.4455 5.01852L72.4455 5.01852L71.9587 5.892ZM74.2987 10.572L73.3036 10.4725L73.2987 10.5221V10.572H74.2987ZM74.2807 10.914V11.914H75.1757L75.2746 11.0244L74.2807 10.914ZM66.2707 10.914H65.2707V11.914H66.2707V10.914ZM66.2707 9.42V8.42H65.2707V9.42H66.2707ZM73.0927 9.42L73.5614 10.3033L73.0927 8.42V9.42ZM72.2107 9.888L71.2109 9.86626L71.1739 11.5702L72.6794 10.7713L72.2107 9.888ZM71.8687 8.43L71.0004 8.92614L71.0004 8.92614L71.8687 8.43ZM70.8787 7.44L70.3716 8.302L70.3825 8.30824L70.8787 7.44ZM67.9987 7.44L67.5025 6.57169L67.4917 6.57806L67.9987 7.44ZM67.0267 8.448L66.1525 7.96233L66.1478 7.97091L67.0267 8.448ZM68.1967 12.858L67.7495 13.7524L67.7495 13.7524L68.1967 12.858ZM71.3107 12.966L71.6731 13.898L71.6731 13.898L71.3107 12.966ZM72.4627 12.174L73.2171 11.5176L72.4887 10.6805L71.7316 11.4917L72.4627 12.174ZM73.6687 13.56L74.4279 14.2108L74.99 13.5551L74.4231 12.9036L73.6687 13.56ZM72.0307 14.73L72.408 15.6561L72.4165 15.6526L72.0307 14.73ZM78.4262 15L77.4874 15.3446L77.728 16H78.4262V15ZM74.8982 5.388V4.388H73.4659L73.9594 5.73256L74.8982 5.388ZM77.0222 5.388L77.964 5.05204L77.7272 4.388H77.0222V5.388ZM80.0462 13.866V14.866H81.4646L80.988 13.53L80.0462 13.866ZM79.0382 13.866L78.1014 13.516L77.597 14.866H79.0382V13.866ZM82.2062 5.388V4.388H81.5123L81.2694 5.03796L82.2062 5.388ZM84.0962 5.388L85.0361 5.04674L84.797 4.388H84.0962V5.388ZM87.1742 13.866V14.866H88.6011L88.1141 13.5247L87.1742 13.866ZM86.1842 13.866L85.2455 13.5212L84.7515 14.866H86.1842V13.866ZM89.2982 5.388V4.388H88.6001L88.3595 5.04322L89.2982 5.388ZM91.2962 5.388L92.2344 5.73411L92.731 4.388H91.2962V5.388ZM87.7502 15V16H88.4471L88.6884 15.3461L87.7502 15ZM85.5902 15L84.6536 15.3504L84.8966 16H85.5902V15ZM82.7822 7.494V6.494H81.3404L81.8456 7.84438L82.7822 7.494ZM83.4482 7.494L84.3825 7.85027L84.8997 6.494H83.4482V7.494ZM80.5862 15V16H81.2751L81.5205 15.3563L80.5862 15ZM93.8131 14.802L93.5132 15.756L93.5213 15.7585L93.5294 15.7609L93.8131 14.802ZM91.6891 13.722L90.8108 13.2438L90.4081 13.9833L91.0684 14.506L91.6891 13.722ZM92.6791 11.904L93.3112 11.1291L92.3773 10.3672L91.8008 11.4258L92.6791 11.904ZM94.3351 12.804L94.0032 13.7473L94.0085 13.7492L94.3351 12.804ZM98.3311 12.624L97.7441 11.8143L97.7344 11.8215L98.3311 12.624ZM98.7451 10.176L97.9028 10.7151L97.9103 10.7268L97.9181 10.7383L98.7451 10.176ZM97.7011 9.492L97.3988 10.4453L97.4054 10.4473L97.7011 9.492ZM92.6251 9.258L91.6295 9.16393L91.5261 10.258H92.6251V9.258ZM93.2731 2.4V1.4H92.3631L92.2775 2.30593L93.2731 2.4ZM100.671 2.4H101.671V1.4H100.671V2.4ZM100.671 4.362V5.362H101.671V4.362H100.671ZM94.1371 4.362L93.5115 3.58181L91.2913 5.362H94.1371V4.362ZM93.6511 7.278V6.278H91.5974L92.8638 7.89467L93.6511 7.278ZM99.1951 7.782L98.7889 8.69581L98.7976 8.69967L98.8064 8.70336L99.1951 7.782ZM100.869 9.15L100.008 9.65932L100.015 9.66973L100.021 9.68L100.869 9.15ZM100.869 13.146L100.007 12.639L100.007 12.639L100.869 13.146ZM99.2131 14.622L98.7659 13.7276L98.76 13.7305L99.2131 14.622ZM9.57799 14.18C8.70099 14.18 7.91596 14.0413 7.2126 13.7762L6.50738 15.6478C7.46003 16.0067 8.48699 16.18 9.57799 16.18V14.18ZM7.22903 13.7826C6.52489 13.503 5.91947 13.1195 5.40336 12.6338L4.03263 14.0902C4.74052 14.7564 5.56309 15.273 6.49096 15.6414L7.22903 13.7826ZM5.41082 12.6409C4.89766 12.1479 4.50052 11.5708 4.21657 10.9014L2.37541 11.6825C2.76346 12.5972 3.31432 13.4001 4.02517 14.0831L5.41082 12.6409ZM4.21657 10.9014C3.93744 10.2435 3.79199 9.51371 3.79199 8.7H1.79199C1.79199 9.75829 1.98255 10.7565 2.37541 11.6825L4.21657 10.9014ZM3.79199 8.7C3.79199 7.88629 3.93744 7.15651 4.21657 6.49855L2.37541 5.71745C1.98255 6.64349 1.79199 7.6417 1.79199 8.7H3.79199ZM4.21657 6.49855C4.49974 5.83108 4.89475 5.26289 5.40336 4.7842L4.03263 3.3278C3.31724 4.00111 2.76424 4.80091 2.37541 5.71745L4.21657 6.49855ZM5.40379 4.78379C5.92847 4.28938 6.54028 3.90867 7.2486 3.64177L6.54338 1.77023C5.59571 2.12732 4.75551 2.64662 4.03219 3.32821L5.40379 4.78379ZM7.26039 3.63724C7.96051 3.36328 8.74139 3.22 9.61399 3.22V1.22C8.5186 1.22 7.48748 1.40071 6.53159 1.77475L7.26039 3.63724ZM9.61399 3.22C10.5729 3.22 11.4016 3.37599 12.1159 3.66775L12.8721 1.81624C11.8824 1.412 10.7911 1.22 9.61399 1.22V3.22ZM12.1204 3.66958C12.8452 3.96151 13.4394 4.38186 13.9194 4.9305L15.4246 3.61349C14.7286 2.81813 13.8708 2.21849 12.8676 1.81441L12.1204 3.66958ZM13.9737 3.55622L12.4977 4.99622L13.8943 6.42778L15.3703 4.98778L13.9737 3.55622ZM13.9031 5.00489C13.3264 4.42818 12.6799 3.98633 11.962 3.70219L11.2259 5.5618C11.6601 5.73367 12.0816 6.01182 12.4889 6.4191L13.9031 5.00489ZM11.9855 3.71184C11.2841 3.41337 10.5249 3.272 9.72199 3.272V5.272C10.2871 5.272 10.7759 5.37063 11.2024 5.55215L11.9855 3.71184ZM9.72199 3.272C8.9511 3.272 8.21667 3.39853 7.52835 3.66214L8.24364 5.52985C8.68331 5.36147 9.17288 5.272 9.72199 5.272V3.272ZM7.52835 3.66214C6.84591 3.9235 6.24261 4.30036 5.73152 4.79642L7.12447 6.23158C7.42937 5.93564 7.79807 5.7005 8.24364 5.52985L7.52835 3.66214ZM5.73152 4.79642C5.22433 5.28869 4.83124 5.86944 4.55274 6.52903L6.39524 7.30697C6.57275 6.88656 6.81566 6.53131 7.12447 6.23158L5.73152 4.79642ZM4.54552 6.54661C4.27716 7.21748 4.14999 7.93928 4.14999 8.7H6.14999C6.14999 8.16471 6.23882 7.69851 6.40247 7.28939L4.54552 6.54661ZM4.14999 8.7C4.14999 9.45127 4.27803 10.1667 4.54552 10.8354L6.40247 10.0926C6.23796 9.68133 6.14999 9.22072 6.14999 8.7H4.14999ZM4.55274 10.853C4.83011 11.5099 5.22018 12.0924 5.72089 12.5931L7.1351 11.1789C6.81981 10.8636 6.57387 10.4981 6.39524 10.075L4.55274 10.853ZM5.73152 12.6036C6.23896 13.0961 6.83317 13.4729 7.50359 13.7352L8.23239 11.8728C7.79882 11.7031 7.43303 11.4679 7.12447 11.1684L5.73152 12.6036ZM7.50359 13.7352C8.18618 14.0023 8.92384 14.128 9.70399 14.128V12.128C9.14014 12.128 8.65381 12.0377 8.23239 11.8728L7.50359 13.7352ZM9.70399 14.128C10.4325 14.128 11.1394 14.0156 11.8202 13.7887L11.1878 11.8913C10.7166 12.0484 10.2235 12.128 9.70399 12.128V14.128ZM11.8318 13.7848C12.5588 13.5325 13.2284 13.1236 13.8413 12.5803L12.5147 11.0837C12.0716 11.4764 11.6252 11.7395 11.1762 11.8952L11.8318 13.7848ZM12.3829 12.4385L13.7149 14.1845L15.305 12.9715L13.973 11.2255L12.3829 12.4385ZM13.8853 12.7971C13.3298 13.2415 12.6739 13.5881 11.9055 13.8302L12.5065 15.7378C13.4901 15.4279 14.3702 14.9705 15.1347 14.3589L13.8853 12.7971ZM11.9138 13.8276C11.1428 14.0632 10.3652 14.18 9.57799 14.18V16.18C10.5668 16.18 11.5412 16.0328 12.4982 15.7403L11.9138 13.8276ZM13.296 13.272V8.556H11.296V13.272H13.296ZM12.296 9.556H14.51V7.556H12.296V9.556ZM13.51 8.556V13.578H15.51V8.556H13.51ZM14.6469 12.5874L12.4329 12.2814L12.1591 14.2626L14.3731 14.5686L14.6469 12.5874ZM21.7003 14.126C20.8628 14.126 20.1555 13.9486 19.5521 13.6186L18.5925 15.3734C19.5251 15.8834 20.5698 16.126 21.7003 16.126V14.126ZM19.5625 13.6244C18.9439 13.2764 18.466 12.8111 18.113 12.2195L16.3956 13.2445C16.9306 14.1409 17.6647 14.8516 18.582 15.3676L19.5625 13.6244ZM18.113 12.2195C17.7701 11.6449 17.5883 10.9791 17.5883 10.194H15.5883C15.5883 11.3049 15.8505 12.3311 16.3956 13.2445L18.113 12.2195ZM17.5883 10.194C17.5883 9.39411 17.7713 8.73187 18.1093 8.17461L16.3993 7.13739C15.8493 8.04413 15.5883 9.07389 15.5883 10.194H17.5883ZM18.113 8.16846C18.4645 7.57938 18.939 7.12266 19.5521 6.78737L18.5925 5.03263C17.6696 5.53734 16.932 6.24461 16.3956 7.14354L18.113 8.16846ZM19.5521 6.78737C20.1555 6.4574 20.8628 6.28 21.7003 6.28V4.28C20.5698 4.28 19.5251 4.52259 18.5925 5.03263L19.5521 6.78737ZM21.7003 6.28C22.552 6.28 23.2649 6.45836 23.8665 6.78737L24.8261 5.03263C23.8917 4.52164 22.8406 4.28 21.7003 4.28V6.28ZM23.8722 6.79047C24.4987 7.12784 24.9678 7.5781 25.3031 8.14625L27.0255 7.12974C26.4968 6.23389 25.7538 5.53216 24.8204 5.02953L23.8722 6.79047ZM25.3093 8.15661C25.6461 8.71194 25.8303 9.37957 25.8303 10.194H27.8303C27.8303 9.06443 27.5705 8.02805 27.0193 7.11939L25.3093 8.15661ZM25.8303 10.194C25.8303 10.9791 25.6485 11.6449 25.3056 12.2195L27.023 13.2445C27.5681 12.3311 27.8303 11.3049 27.8303 10.194H25.8303ZM25.2995 12.2299C24.9617 12.8117 24.4897 13.2734 23.8618 13.6212L24.8308 15.3708C25.7629 14.8546 26.5029 14.1403 27.0291 13.2341L25.2995 12.2299ZM23.8665 13.6186C23.2649 13.9476 22.552 14.126 21.7003 14.126V16.126C22.8406 16.126 23.8917 15.8844 24.8261 15.3734L23.8665 13.6186ZM21.7003 14.2C22.402 14.2 23.0646 14.046 23.6619 13.7142L22.6906 11.9658C22.424 12.114 22.1026 12.2 21.7003 12.2V14.2ZM23.6619 13.7142C24.2714 13.3756 24.7427 12.8821 25.0692 12.2617L23.2994 11.3303C23.1458 11.6219 22.9452 11.8244 22.6906 11.9658L23.6619 13.7142ZM25.0595 12.2797C25.4066 11.6516 25.5623 10.9455 25.5623 10.194H23.5623C23.5623 10.6665 23.466 11.0284 23.309 11.3123L25.0595 12.2797ZM25.5623 10.194C25.5623 9.43518 25.4085 8.72296 25.054 8.09839L23.3146 9.0856C23.4641 9.34904 23.5623 9.70482 23.5623 10.194H25.5623ZM25.0692 8.12625C24.7427 7.50594 24.2714 7.01243 23.6619 6.67384L22.6906 8.42215C22.9452 8.56356 23.1458 8.76605 23.2994 9.05774L25.0692 8.12625ZM23.6619 6.67384C23.0679 6.3438 22.4121 6.188 21.7183 6.188V8.188C22.1045 8.188 22.4207 8.27219 22.6906 8.42215L23.6619 6.67384ZM21.7183 6.188C21.0166 6.188 20.354 6.342 19.7566 6.67384L20.7279 8.42215C20.9946 8.274 21.316 8.188 21.7183 8.188V6.188ZM19.7461 6.67975C19.1546 7.01776 18.6927 7.50463 18.359 8.10831L20.1095 9.07568C20.2799 8.76737 20.4899 8.55823 20.7384 8.41624L19.7461 6.67975ZM18.3646 8.09839C18.0101 8.72296 17.8563 9.43518 17.8563 10.194H19.8563C19.8563 9.70482 19.9545 9.34904 20.104 9.0856L18.3646 8.09839ZM17.8563 10.194C17.8563 10.9455 18.012 11.6516 18.359 12.2797L20.1095 11.3123C19.9526 11.0284 19.8563 10.6665 19.8563 10.194H17.8563ZM18.359 12.2797C18.6927 12.8834 19.1546 13.3702 19.7461 13.7082L20.7384 11.9718C20.4899 11.8298 20.2799 11.6206 20.1095 11.3123L18.359 12.2797ZM19.7566 13.7142C20.3507 14.0442 21.0065 14.2 21.7003 14.2V12.2C21.3141 12.2 20.9979 12.1158 20.7279 11.9658L19.7566 13.7142ZM33.3019 14.126C32.4644 14.126 31.757 13.9486 31.1537 13.6186L30.194 15.3734C31.1267 15.8834 32.1713 16.126 33.3019 16.126V14.126ZM31.1641 13.6244C30.5454 13.2764 30.0676 12.8111 29.7146 12.2195L27.9971 13.2445C28.5321 14.1409 29.2663 14.8516 30.1836 15.3676L31.1641 13.6244ZM29.7146 12.2195C29.3716 11.6449 29.1899 10.9791 29.1899 10.194H27.1899C27.1899 11.3049 27.4521 12.3311 27.9971 13.2445L29.7146 12.2195ZM29.1899 10.194C29.1899 9.39411 29.3729 8.73187 29.7109 8.17461L28.0008 7.13739C27.4509 8.04413 27.1899 9.07389 27.1899 10.194H29.1899ZM29.7146 8.16846C30.0661 7.57938 30.5406 7.12265 31.1537 6.78737L30.194 5.03263C29.2711 5.53734 28.5336 6.24461 27.9971 7.14354L29.7146 8.16846ZM31.1537 6.78737C31.757 6.4574 32.4644 6.28 33.3019 6.28V4.28C32.1713 4.28 31.1267 4.52259 30.194 5.03263L31.1537 6.78737ZM33.3019 6.28C34.1536 6.28 34.8664 6.45836 35.468 6.78737L36.4277 5.03263C35.4933 4.52164 34.4421 4.28 33.3019 4.28V6.28ZM35.4738 6.79047C36.1003 7.12784 36.5693 7.5781 36.9046 8.14625L38.6271 7.12974C38.0984 6.23389 37.3554 5.53216 36.422 5.02953L35.4738 6.79047ZM36.9108 8.15661C37.2477 8.71194 37.4319 9.37957 37.4319 10.194H39.4319C39.4319 9.06443 39.172 8.02805 38.6209 7.11939L36.9108 8.15661ZM37.4319 10.194C37.4319 10.9791 37.2501 11.6449 36.9071 12.2195L38.6246 13.2445C39.1696 12.3311 39.4319 11.3049 39.4319 10.194H37.4319ZM36.9011 12.2299C36.5632 12.8117 36.0913 13.2734 35.4634 13.6212L36.4324 15.3708C37.3644 14.8546 38.1045 14.1403 38.6306 13.2341L36.9011 12.2299ZM35.468 13.6186C34.8664 13.9476 34.1536 14.126 33.3019 14.126V16.126C34.4421 16.126 35.4933 15.8844 36.4277 15.3734L35.468 13.6186ZM33.3019 14.2C34.0035 14.2 34.6662 14.046 35.2635 13.7142L34.2922 11.9658C34.0255 12.114 33.7042 12.2 33.3019 12.2V14.2ZM35.2635 13.7142C35.873 13.3756 36.3443 12.882 36.6708 12.2617L34.9009 11.3303C34.7474 11.6219 34.5467 11.8244 34.2922 11.9658L35.2635 13.7142ZM36.6611 12.2797C37.0082 11.6516 37.1639 10.9455 37.1639 10.194H35.1639C35.1639 10.6665 35.0675 11.0283 34.9106 11.3123L36.6611 12.2797ZM37.1639 10.194C37.1639 9.43518 37.01 8.72295 36.6555 8.09839L34.9162 9.0856C35.0657 9.34904 35.1639 9.70482 35.1639 10.194H37.1639ZM36.6708 8.12625C36.3443 7.50595 35.873 7.01243 35.2635 6.67384L34.2922 8.42215C34.5467 8.56356 34.7474 8.76605 34.9009 9.05774L36.6708 8.12625ZM35.2635 6.67384C34.6694 6.3438 34.0136 6.188 33.3199 6.188V8.188C33.7061 8.188 34.0223 8.27219 34.2922 8.42215L35.2635 6.67384ZM33.3199 6.188C32.6182 6.188 31.9555 6.342 31.3582 6.67384L32.3295 8.42215C32.5962 8.274 32.9175 8.188 33.3199 8.188V6.188ZM31.3477 6.67975C30.7562 7.01776 30.2942 7.50463 29.9606 8.10831L31.7111 9.07568C31.8815 8.76737 32.0915 8.55823 32.34 8.41624L31.3477 6.67975ZM29.9662 8.09839C29.6117 8.72296 29.4579 9.43518 29.4579 10.194H31.4579C31.4579 9.70482 31.556 9.34904 31.7055 9.0856L29.9662 8.09839ZM29.4579 10.194C29.4579 10.9455 29.6135 11.6516 29.9606 12.2797L31.7111 11.3123C31.5542 11.0284 31.4579 10.6665 31.4579 10.194H29.4579ZM29.9606 12.2797C30.2942 12.8834 30.7562 13.3702 31.3477 13.7082L32.34 11.9718C32.0915 11.8298 31.8815 11.6206 31.7111 11.3123L29.9606 12.2797ZM31.3582 13.7142C31.9523 14.0442 32.6081 14.2 33.3019 14.2V12.2C32.9156 12.2 32.5994 12.1158 32.3295 11.9658L31.3582 13.7142ZM44.6514 14.126C43.8802 14.126 43.214 13.9573 42.6302 13.6372L41.6686 15.3908C42.5728 15.8867 43.5747 16.126 44.6514 16.126V14.126ZM42.6471 13.6466C42.0689 13.3149 41.6205 12.8665 41.2888 12.2883L39.554 13.2837C40.0623 14.1695 40.7659 14.8731 41.6517 15.3814L42.6471 13.6466ZM41.2888 12.2883C40.9702 11.7331 40.7914 11.047 40.7914 10.194H38.7914C38.7914 11.333 39.0326 12.3749 39.554 13.2837L41.2888 12.2883ZM40.7914 10.194C40.7914 9.34098 40.9702 8.65494 41.2888 8.09967L39.554 7.10433C39.0326 8.01306 38.7914 9.05501 38.7914 10.194H40.7914ZM41.2888 8.09967C41.6191 7.52399 42.0641 7.08442 42.6363 6.76548L41.6626 5.01852C40.7708 5.51557 40.0637 6.21601 39.554 7.10433L41.2888 8.09967ZM42.6302 6.76881C43.214 6.4487 43.8802 6.28 44.6514 6.28V4.28C43.5747 4.28 42.5728 4.5193 41.6686 5.01518L42.6302 6.76881ZM44.6514 6.28C45.3005 6.28 45.8478 6.42363 46.3188 6.69025L47.304 4.94974C46.5031 4.49637 45.6103 4.28 44.6514 4.28V6.28ZM46.3314 6.69726C46.7724 6.93857 47.1432 7.31635 47.435 7.88102L49.2118 6.96298C48.7596 6.08764 48.1224 5.39742 47.2914 4.94273L46.3314 6.69726ZM47.435 7.88102C47.7107 8.41458 47.8814 9.16665 47.8814 10.194H49.8814C49.8814 8.96534 49.6802 7.86941 49.2118 6.96298L47.435 7.88102ZM47.8814 10.194C47.8814 11.2103 47.7164 11.9709 47.4441 12.5247L49.2388 13.4073C49.6864 12.4971 49.8814 11.4097 49.8814 10.194H47.8814ZM47.447 12.5188C47.1665 13.0798 46.8004 13.4635 46.3548 13.7157L47.34 15.4563C48.1665 14.9885 48.7963 14.2922 49.2358 13.4132L47.447 12.5188ZM46.3548 13.7157C45.8882 13.9799 45.3301 14.126 44.6514 14.126V16.126C45.6287 16.126 46.5347 15.9121 47.34 15.4563L46.3548 13.7157ZM44.9214 14.2C45.6148 14.2 46.2695 14.0443 46.8576 13.7082L45.8653 11.9718C45.6134 12.1157 45.3081 12.2 44.9214 12.2V14.2ZM46.8471 13.7142C47.452 13.3781 47.9251 12.8905 48.2627 12.2797L46.5122 11.3123C46.3457 11.6135 46.1348 11.8219 45.8758 11.9658L46.8471 13.7142ZM48.2528 12.297C48.6184 11.6657 48.7834 10.9532 48.7834 10.194H46.7834C46.7834 10.6588 46.6845 11.0143 46.522 11.295L48.2528 12.297ZM48.7834 10.194C48.7834 9.42758 48.6203 8.70886 48.2469 8.08092L46.5279 9.10307C46.6825 9.36314 46.7834 9.71242 46.7834 10.194H48.7834ZM48.2627 8.10831C47.9251 7.49753 47.452 7.00994 46.8471 6.67384L45.8758 8.42215C46.1348 8.56606 46.3457 8.77447 46.5122 9.07568L48.2627 8.10831ZM46.8576 6.67975C46.2695 6.3437 45.6148 6.188 44.9214 6.188V8.188C45.3081 8.188 45.6134 8.2723 45.8653 8.41624L46.8576 6.67975ZM44.9214 6.188C44.2276 6.188 43.5718 6.3438 42.9778 6.67384L43.9491 8.42216C44.219 8.27219 44.5352 8.188 44.9214 8.188V6.188ZM42.9673 6.67975C42.3804 7.01512 41.9163 7.49615 41.572 8.09096L43.3028 9.09303C43.4865 8.77584 43.7064 8.56088 43.9596 8.41624L42.9673 6.67975ZM41.5677 8.09839C41.2132 8.72296 41.0594 9.43518 41.0594 10.194H43.0594C43.0594 9.70481 43.1576 9.34904 43.3071 9.0856L41.5677 8.09839ZM41.0594 10.194C41.0594 10.9455 41.2151 11.6516 41.5622 12.2797L43.3127 11.3123C43.1557 11.0284 43.0594 10.6665 43.0594 10.194H41.0594ZM41.572 12.297C41.9163 12.8918 42.3804 13.3729 42.9673 13.7082L43.9596 11.9718C43.7064 11.8271 43.4865 11.6122 43.3028 11.295L41.572 12.297ZM42.9778 13.7142C43.5718 14.0442 44.2276 14.2 44.9214 14.2V12.2C44.5352 12.2 44.219 12.1158 43.9491 11.9658L42.9778 13.7142ZM48.8374 15V12.732H46.8374V15H48.8374ZM48.8368 12.7672L48.9268 10.2112L46.928 10.1408L46.838 12.6968L48.8368 12.7672ZM48.9249 10.1057L48.7449 7.54975L46.7499 7.69025L46.9299 10.2462L48.9249 10.1057ZM48.7474 7.62V1.644H46.7474V7.62H48.7474ZM47.7474 2.644H49.9794V0.643997H47.7474V2.644ZM48.9794 1.644V15H50.9794V1.644H48.9794ZM49.9794 14H47.8374V16H49.9794V14ZM58.3948 6.28C59.0302 6.28 59.5574 6.40329 59.9996 6.62442L60.894 4.83557C60.1363 4.45671 59.2955 4.28 58.3948 4.28V6.28ZM60.0067 6.62792C60.4267 6.8338 60.7596 7.14784 61.0135 7.60307L62.7602 6.62893C62.3181 5.83616 61.691 5.2262 60.887 4.83208L60.0067 6.62792ZM61.0175 7.6103C61.2534 8.02505 61.4088 8.63039 61.4088 9.492H63.4088C63.4088 8.4096 63.2163 7.43095 62.7561 6.6217L61.0175 7.6103ZM61.4088 9.492V15H63.4088V9.492H61.4088ZM62.4088 14H60.1588V16H62.4088V14ZM61.1588 15V9.78H59.1588V15H61.1588ZM61.1588 9.78C61.1588 8.7857 60.9217 7.85209 60.2641 7.17521L58.8296 8.56878C58.988 8.73191 59.1588 9.0703 59.1588 9.78H61.1588ZM60.2744 7.18598C59.6448 6.51823 58.7956 6.242 57.8728 6.242V8.242C58.3901 8.242 58.6568 8.38577 58.8192 8.55801L60.2744 7.18598ZM57.8728 6.242C57.2054 6.242 56.5726 6.37955 56.0009 6.68221L56.9367 8.44979C57.181 8.32044 57.4843 8.242 57.8728 8.242V6.242ZM56.0009 6.68221C55.4048 6.99782 54.9465 7.47244 54.6305 8.07124L56.3992 9.00476C56.5392 8.73956 56.7169 8.56617 56.9367 8.44979L56.0009 6.68221ZM54.6255 8.08065C54.3149 8.68478 54.1908 9.38904 54.1908 10.14H56.1908C56.1908 9.59495 56.2828 9.23121 56.4041 8.99534L54.6255 8.08065ZM54.1908 10.14V15H56.1908V10.14H54.1908ZM55.1908 14H52.9408V16H55.1908V14ZM53.9408 15V5.388H51.9408V15H53.9408ZM52.9408 6.388H55.0828V4.388H52.9408V6.388ZM54.0828 5.388V7.98H56.0828V5.388H54.0828ZM55.9853 7.54927L55.6073 6.75727L53.8024 7.61873L54.1804 8.41073L55.9853 7.54927ZM55.5814 7.66926C55.8186 7.2373 56.1553 6.91011 56.6168 6.67504L55.7089 4.89296C54.8984 5.30588 54.2631 5.91469 53.8283 6.70674L55.5814 7.66926ZM56.6232 6.67175C57.1088 6.41992 57.6908 6.28 58.3948 6.28V4.28C57.4189 4.28 56.5128 4.47607 55.7025 4.89624L56.6232 6.67175ZM69.7987 14.126C68.8634 14.126 68.0914 13.9428 67.4537 13.6096L66.5277 15.3823C67.4979 15.8892 68.598 16.126 69.7987 16.126V14.126ZM67.4695 13.6181C66.8278 13.2681 66.3439 12.8035 65.9954 12.2195L64.278 13.2445C64.8175 14.1485 65.5696 14.8599 66.5118 15.3739L67.4695 13.6181ZM66.0015 12.2299C65.6669 11.6536 65.4887 10.9841 65.4887 10.194H63.4887C63.4887 11.2999 63.7425 12.3224 64.2719 13.2341L66.0015 12.2299ZM65.4887 10.194C65.4887 9.3842 65.6643 8.71434 65.986 8.15367L64.2513 7.15833C63.733 8.06165 63.4887 9.08379 63.4887 10.194H65.4887ZM65.9835 8.15813C66.3268 7.56692 66.7864 7.11269 67.3743 6.78082L66.3911 5.03917C65.491 5.54731 64.7746 6.25707 64.2539 7.15386L65.9835 8.15813ZM67.3683 6.78416C67.9599 6.45549 68.6475 6.28 69.4567 6.28V4.28C68.3458 4.28 67.3174 4.52451 66.397 5.03584L67.3683 6.78416ZM69.4567 6.28C70.2426 6.28 70.9055 6.44981 71.4718 6.76548L72.4455 5.01852C71.5479 4.51819 70.5428 4.28 69.4567 4.28V6.28ZM71.4718 6.76548C72.0399 7.0821 72.4844 7.52449 72.8159 8.11159L74.5575 7.1284C74.0489 6.2275 73.3415 5.51789 72.4455 5.01852L71.4718 6.76548ZM72.8159 8.11159C73.1371 8.68064 73.3167 9.38114 73.3167 10.248H75.3167C75.3167 9.09885 75.0763 8.04735 74.5575 7.1284L72.8159 8.11159ZM73.3167 10.248C73.3167 10.3037 73.3131 10.3776 73.3036 10.4725L75.2937 10.6715C75.3082 10.5264 75.3167 10.3843 75.3167 10.248H73.3167ZM73.2987 10.572C73.2987 10.6588 73.2943 10.7358 73.2868 10.8036L75.2746 11.0244C75.291 10.8762 75.2987 10.7252 75.2987 10.572H73.2987ZM74.2807 9.914H66.2707V11.914H74.2807V9.914ZM67.2707 10.914V9.42H65.2707V10.914H67.2707ZM66.2707 10.42H73.0927V8.42H66.2707V10.42ZM72.624 8.53665L71.742 9.00465L72.6794 10.7713L73.5614 10.3033L72.624 8.53665ZM73.2104 9.90973C73.2258 9.20253 73.0791 8.53262 72.7369 7.93386L71.0004 8.92614C71.1383 9.16737 71.2195 9.46946 71.2109 9.86626L73.2104 9.90973ZM72.7369 7.93386C72.4083 7.35882 71.9498 6.90034 71.3748 6.57175L70.3825 8.30824C70.6475 8.45965 70.849 8.66117 71.0004 8.92614L72.7369 7.93386ZM71.3857 6.57806C70.8034 6.23553 70.1494 6.08 69.4567 6.08V8.08C69.8439 8.08 70.138 8.16446 70.3717 8.30193L71.3857 6.57806ZM69.4567 6.08C68.7556 6.08 68.0939 6.23383 67.5025 6.57175L68.4948 8.30824C68.7435 8.16617 69.0538 8.08 69.4567 8.08V6.08ZM67.4917 6.57806C66.923 6.91257 66.4752 7.38159 66.1525 7.96235L67.9008 8.93364C68.0582 8.65041 68.2584 8.44742 68.5057 8.30193L67.4917 6.57806ZM66.1478 7.97091C65.8255 8.5646 65.6847 9.23338 65.6847 9.942H67.6847C67.6847 9.49862 67.7718 9.1714 67.9055 8.92509L66.1478 7.97091ZM65.6847 9.942V10.302H67.6847V9.942H65.6847ZM65.6847 10.302C65.6847 11.0367 65.8549 11.7272 66.2211 12.3431L67.9402 11.3209C67.7784 11.0488 67.6847 10.7193 67.6847 10.302H65.6847ZM66.2211 12.3431C66.587 12.9583 67.1052 13.4303 67.7495 13.7524L68.6439 11.9636C68.3282 11.8057 68.1024 11.5937 67.9402 11.3209L66.2211 12.3431ZM67.7495 13.7524C68.3893 14.0723 69.0987 14.218 69.8527 14.218V12.218C69.3587 12.218 68.9641 12.1237 68.6439 11.9636L67.7495 13.7524ZM69.8527 14.218C70.4965 14.218 71.1082 14.1177 71.6731 13.898L70.9482 12.034C70.6492 12.1503 70.2888 12.218 69.8527 12.218V14.218ZM71.6731 13.898C72.2539 13.6722 72.7617 13.3192 73.1937 12.8563L71.7316 11.4917C71.4916 11.7488 71.2315 11.9238 70.9482 12.034L71.6731 13.898ZM71.7083 12.8304L72.9143 14.2164L74.4231 12.9036L73.2171 11.5176L71.7083 12.8304ZM72.9094 12.9092C72.5868 13.2856 72.1723 13.5868 71.6449 13.8074L72.4165 15.6526C73.209 15.3211 73.8866 14.8423 74.4279 14.2108L72.9094 12.9092ZM71.6534 13.8039C71.1466 14.0104 70.5347 14.126 69.7987 14.126V16.126C70.7427 16.126 71.6187 15.9776 72.408 15.6561L71.6534 13.8039ZM79.3649 14.6554L75.8369 5.04343L73.9594 5.73256L77.4874 15.3446L79.3649 14.6554ZM74.8982 6.388H77.0222V4.388H74.8982V6.388ZM76.0803 5.72395L79.1043 14.202L80.988 13.53L77.964 5.05204L76.0803 5.72395ZM80.0462 12.866H79.0382V14.866H80.0462V12.866ZM79.9749 14.216L83.1429 5.73803L81.2694 5.03796L78.1014 13.516L79.9749 14.216ZM82.2062 6.388H84.0962V4.388H82.2062V6.388ZM83.1562 5.72926L86.2342 14.2073L88.1141 13.5247L85.0361 5.04674L83.1562 5.72926ZM87.1742 12.866H86.1842V14.866H87.1742V12.866ZM87.1228 14.2108L90.2368 5.73278L88.3595 5.04322L85.2455 13.5212L87.1228 14.2108ZM89.2982 6.388H91.2962V4.388H89.2982V6.388ZM90.358 5.04188L86.812 14.6539L88.6884 15.3461L92.2344 5.73411L90.358 5.04188ZM87.7502 14H85.5902V16H87.7502V14ZM86.5268 14.6496L83.7188 7.14361L81.8456 7.84438L84.6536 15.3504L86.5268 14.6496ZM82.7822 8.494H83.4482V6.494H82.7822V8.494ZM82.5138 7.13772L79.6518 14.6437L81.5205 15.3563L84.3825 7.85027L82.5138 7.13772ZM80.5862 14H78.4262V16H80.5862V14ZM96.4231 14.18C95.6312 14.18 94.8567 14.0678 94.0967 13.8431L93.5294 15.7609C94.4735 16.0402 95.439 16.18 96.4231 16.18V14.18ZM94.1129 13.848C93.3668 13.6135 92.7732 13.3048 92.3098 12.938L91.0684 14.506C91.757 15.0512 92.5793 15.4625 93.5132 15.756L94.1129 13.848ZM92.5673 14.2002L93.5573 12.3822L91.8008 11.4258L90.8108 13.2438L92.5673 14.2002ZM92.0469 12.6789C92.6061 13.135 93.264 13.4872 94.0032 13.7473L94.667 11.8607C94.1101 11.6648 93.664 11.417 93.3112 11.1291L92.0469 12.6789ZM94.0085 13.7492C94.7751 14.014 95.5695 14.146 96.3871 14.146V12.146C95.7886 12.146 95.2151 12.05 94.6616 11.8588L94.0085 13.7492ZM96.3871 14.146C97.3425 14.146 98.2283 13.9466 98.9278 13.4265L97.7344 11.8215C97.4979 11.9974 97.0876 12.146 96.3871 12.146V14.146ZM98.918 13.4336C99.6549 12.8994 100.051 12.1316 100.051 11.22H98.0511C98.0511 11.4844 97.9672 11.6526 97.7441 11.8144L98.918 13.4336ZM100.051 11.22C100.051 10.6426 99.8991 10.0947 99.572 9.61369L97.9181 10.7383C97.999 10.8573 98.0511 11.0053 98.0511 11.22H100.051ZM99.5873 9.63694C99.2191 9.06158 98.6211 8.72997 97.9968 8.53671L97.4054 10.4473C97.789 10.566 97.887 10.6904 97.9028 10.7151L99.5873 9.63694ZM98.0033 8.53877C97.3698 8.33788 96.5744 8.258 95.6671 8.258V10.258C96.4877 10.258 97.0484 10.3341 97.3988 10.4452L98.0033 8.53877ZM95.6671 8.258H92.6251V10.258H95.6671V8.258ZM93.6206 9.35207L94.2686 2.49407L92.2775 2.30593L91.6295 9.16393L93.6206 9.35207ZM93.2731 3.4H100.671V1.4H93.2731V3.4ZM99.6711 2.4V4.362H101.671V2.4H99.6711ZM100.671 3.362H94.1371V5.362H100.671V3.362ZM94.1371 4.362C94.7626 5.14218 94.7627 5.14216 94.7627 5.14213C94.7627 5.14211 94.7627 5.14208 94.7628 5.14205C94.7629 5.14199 94.7629 5.14192 94.763 5.14184C94.7633 5.14167 94.7635 5.14145 94.7639 5.14118C94.7646 5.14063 94.7655 5.13988 94.7667 5.13892C94.7691 5.137 94.7725 5.13428 94.7768 5.13078C94.7855 5.1238 94.7979 5.11374 94.8137 5.10098C94.8451 5.07547 94.8899 5.03906 94.9438 4.99471C95.0513 4.90634 95.1973 4.78488 95.349 4.6544C95.499 4.52546 95.663 4.38039 95.8029 4.2463C95.8726 4.17961 95.9445 4.10777 96.009 4.03671C96.0607 3.97973 96.1566 3.87088 96.2318 3.73776L94.4903 2.75424C94.5308 2.68261 94.5624 2.65476 94.5282 2.69244C94.5067 2.71605 94.4711 2.75254 94.4195 2.802C94.3169 2.90023 94.1836 3.01879 94.0449 3.13809C93.908 3.25586 93.7741 3.36728 93.6738 3.44972C93.6238 3.49078 93.5827 3.52426 93.5543 3.54729C93.5401 3.5588 93.5291 3.56767 93.5218 3.57355C93.5181 3.57649 93.5154 3.57868 93.5137 3.58007C93.5128 3.58077 93.5122 3.58126 93.5118 3.58156C93.5117 3.5817 93.5115 3.5818 93.5115 3.58184C93.5115 3.58186 93.5114 3.58187 93.5115 3.58187C93.5115 3.58186 93.5115 3.58185 93.5115 3.58185C93.5115 3.58183 93.5115 3.58181 94.1371 4.362ZM96.2318 3.73776C96.2155 3.76662 96.129 3.92409 95.945 4.05438C95.8396 4.12903 95.6604 4.22402 95.4194 4.23599C95.163 4.24872 94.9438 4.16221 94.7865 4.04846C94.5315 3.8642 94.4487 3.61976 94.4366 3.58648C94.4091 3.51059 94.398 3.44982 94.3942 3.42741C94.3818 3.35458 94.3857 3.31519 94.3854 3.37733C94.3852 3.45973 94.3788 3.61142 94.3652 3.83111C94.3386 4.26079 94.29 4.8683 94.2361 5.50957C94.1836 6.13578 94.1234 6.82439 94.0794 7.3503C94.0371 7.85666 94 8.32124 94 8.5H96C96 8.50272 96 8.4971 96.0007 8.47926C96.0013 8.46274 96.0024 8.44068 96.004 8.41247C96.0072 8.35594 96.0121 8.28261 96.0186 8.1932C96.0316 8.01461 96.0502 7.78356 96.0725 7.51677C96.118 6.97224 96.1741 6.33247 96.2291 5.67693C96.2829 5.03645 96.3333 4.40884 96.3614 3.95458C96.3751 3.7323 96.385 3.52981 96.3854 3.38391C96.3856 3.3319 96.386 3.20982 96.3656 3.09053C96.3598 3.0565 96.3465 2.98639 96.3164 2.90348C96.3018 2.86319 96.2161 2.61408 95.9581 2.42755C95.7991 2.31267 95.5783 2.22563 95.3202 2.23845C95.0775 2.25051 94.8965 2.34619 94.7892 2.42217C94.6015 2.55509 94.511 2.71768 94.4903 2.75424L96.2318 3.73776ZM94 8.5C94 8.44861 94.0033 8.23873 94.1522 8.01485C94.2348 7.89071 94.3539 7.77601 94.5088 7.69625C94.6599 7.61844 94.8063 7.59365 94.9213 7.59126C95.1278 7.58698 95.2702 7.65334 95.3034 7.66908C95.33 7.68168 95.3487 7.6926 95.3582 7.6985C95.3683 7.70466 95.3736 7.70852 95.3738 7.70869C95.3743 7.70899 95.3717 7.70716 95.366 7.70258C95.3604 7.69807 95.3527 7.69172 95.343 7.68326C95.3232 7.66606 95.2984 7.64329 95.2686 7.61445C95.2085 7.55628 95.1387 7.48368 95.0628 7.40088C94.911 7.23523 94.7549 7.05064 94.6339 6.9037C94.5741 6.83108 94.5244 6.76946 94.4899 6.72635C94.4727 6.70482 94.4594 6.688 94.4505 6.67683C94.4461 6.67125 94.4428 6.66708 94.4408 6.66446C94.4397 6.66315 94.439 6.66222 94.4386 6.66169C94.4384 6.66143 94.4382 6.66127 94.4382 6.6612C94.4382 6.66117 94.4382 6.66117 94.4382 6.66119C94.4382 6.6612 94.4382 6.66123 94.4382 6.66124C94.4383 6.66128 94.4383 6.66133 93.6511 7.278C92.8638 7.89467 92.8639 7.89473 92.8639 7.8948C92.864 7.89483 92.864 7.8949 92.8641 7.89496C92.8642 7.89509 92.8643 7.89524 92.8644 7.89542C92.8647 7.89577 92.8651 7.89623 92.8655 7.8968C92.8664 7.89792 92.8676 7.89945 92.8691 7.90139C92.8722 7.90525 92.8765 7.91069 92.8819 7.9176C92.8928 7.93141 92.9085 7.95109 92.9281 7.97568C92.9674 8.02479 93.0231 8.09379 93.0898 8.1748C93.2217 8.3351 93.4029 8.54977 93.5883 8.75211C93.7569 8.93607 93.9863 9.17399 94.2046 9.33131C94.2643 9.3743 94.3475 9.42932 94.4476 9.47671C94.5322 9.51677 94.7194 9.59588 94.9628 9.59083C95.2673 9.58451 95.6046 9.44258 95.8175 9.1225C95.9862 8.86891 96 8.61389 96 8.5H94ZM93.6511 8.278H96.1891V6.278H93.6511V8.278ZM96.1891 8.278C97.3617 8.278 98.2089 8.43802 98.7889 8.69581L99.6012 6.86819C98.6692 6.45398 97.5125 6.278 96.1891 6.278V8.278ZM98.8064 8.70336C99.4213 8.96281 99.7918 9.29317 100.008 9.65932L101.73 8.64068C101.25 7.83082 100.505 7.24919 99.5838 6.86063L98.8064 8.70336ZM100.021 9.68C100.272 10.0821 100.409 10.5549 100.409 11.13H102.409C102.409 10.2171 102.186 9.36993 101.717 8.62L100.021 9.68ZM100.409 11.13C100.409 11.6895 100.274 12.1856 100.007 12.639L101.731 13.653C102.184 12.8824 102.409 12.0345 102.409 11.13H100.409ZM100.007 12.639C99.7609 13.0576 99.3673 13.4268 98.7659 13.7276L99.6603 15.5164C100.547 15.0732 101.257 14.4584 101.731 13.653L100.007 12.639ZM98.76 13.7305C98.2108 14.0096 97.4494 14.18 96.4231 14.18V16.18C97.6528 16.18 98.7513 15.9784 99.6661 15.5135L98.76 13.7305Z"
    fill="black" mask="url(#path-3-outside-2_2_6)" />
</svg>