<svg width="693" height="690" viewBox="0 0 693 690" fill="none" xmlns="http://www.w3.org/2000/svg">
  <g clip-path="url(#clip0_18_266)">
    <path
      d="M244.213 302.402L397.889 295.528L449.286 302.402C449.158 315.039 453.741 327.27 462.138 336.703C476.211 352.311 531.559 483.071 531.559 483.071L197.322 534.314L108.283 581.529V452.936L244.213 302.402Z"
      fill="black" />
    <path
      d="M58.1205 625.065C77.0042 599.832 95.9018 577.766 117.933 558.852C127.111 549.659 142.21 552.339 151.735 543.812C149.655 543.715 147.673 543.646 145.884 543.632C145.884 543.632 176.387 518.941 182.847 446.493C182.847 446.493 242.688 330.828 234.244 313.442C234.244 313.442 88.0128 317.691 62.3215 361.157C40.138 398.652 -57.4558 634.008 48.4568 681.237C39.3893 662.393 45.6561 637.549 58.1205 625.065Z"
      fill="black" />
    <path
      d="M502.083 625.703C481.832 633.797 461.162 640.797 440.163 646.673C435.629 647.964 431.04 649.228 426.479 650.422H426.409C418.673 652.505 410.899 654.449 403.089 656.255C401.799 656.546 400.538 656.866 399.248 657.143C396.891 657.685 394.52 658.213 392.163 658.727C388.448 659.574 384.704 660.365 380.961 661.143C378.756 661.615 376.579 662.059 374.375 662.532C364.956 664.448 355.556 666.212 346.174 667.823C336.635 669.531 327.124 671.044 317.751 672.461C249.76 682.482 181.164 687.836 112.443 688.486C111.794 688.486 111.145 688.528 110.502 688.611C86.9317 691.389 67.8538 689.861 52.464 684.778C49.7669 683.905 47.3404 682.35 45.4192 680.263C43.4979 678.175 42.147 675.627 41.497 672.864C37.6426 656.033 43.4242 636.98 53.6009 626.231C54.0366 625.791 54.4486 625.327 54.8349 624.842C72.9283 600.735 91.0634 579.529 111.971 561.213C113.359 560.002 114.938 559.031 116.644 558.338C167.208 537.716 176.997 543.382 184.719 540.007C187.899 538.542 191.442 538.059 194.896 538.619C277.114 553.741 465.591 602.498 497.466 610.831C500.481 611.618 503.657 611.541 506.63 610.608C531.476 602.832 644.584 568.156 502.083 625.703Z"
      fill="#C89A8A" />
    <path
      d="M657.644 606.984C656.826 631.897 596.64 624.37 516.391 613.677C510.609 612.886 504.689 612.067 498.699 611.192C481.646 608.664 464.037 605.762 446.166 602.512C437.847 601.124 429.528 599.513 421.112 597.874C409.646 595.694 398.18 593.416 386.797 591.069C386.062 590.92 385.3 590.981 384.599 591.247C383.897 591.512 383.285 591.97 382.832 592.569C382.442 593.082 381.934 593.492 381.352 593.765C380.77 594.039 380.13 594.167 379.487 594.14C378.845 594.113 378.218 593.931 377.661 593.609C377.104 593.287 376.633 592.835 376.288 592.292L374.901 590.195C374.475 589.536 373.869 589.016 373.154 588.695L371.185 587.82C371.085 587.837 370.981 587.837 370.88 587.82L362.562 586.042L358.624 585.195C356.752 584.806 354.908 584.39 353.078 583.959L352.621 583.876L348.863 583.473C348.467 583.426 348.08 583.323 347.713 583.168L346.326 582.571C346.093 582.471 345.852 582.392 345.605 582.335C332.711 579.474 320.08 576.585 307.893 573.711L296.898 571.1C291.473 569.795 286.158 568.503 280.954 567.226C275.75 565.948 270.611 564.666 265.536 563.379C209.856 549.284 171.187 537.508 171.603 535.036C177.87 495.333 249.079 488.764 256.053 488.223C256.407 488.175 256.766 488.175 257.12 488.223C275.616 492.028 298.715 493.264 324.378 492.778C329.189 492.694 334.084 492.528 339.075 492.278C343.484 492.125 347.921 491.875 352.427 491.611C354.908 491.459 357.432 491.264 359.941 491.111C473.147 483.126 612.972 450.756 629.679 446.826C630.202 446.699 630.745 446.681 631.275 446.774C631.805 446.867 632.309 447.069 632.757 447.368C657.201 463.962 661.166 500.402 657.644 606.984Z"
      fill="#C59E97" />
    <path
      d="M231.069 337.008C231.069 337.008 137.648 222.566 221.225 146.896C221.225 146.896 198.112 77.4613 296.094 3.36064C296.094 3.36064 438.36 -20.4138 452.835 58.4779C452.835 58.4779 473.729 120.9 460.863 170.184C460.863 170.184 468.71 232.926 441.452 266.768C441.452 266.768 481.188 305.749 465.022 322.066L515.49 354.728C515.49 354.728 234.285 372.434 231.069 337.008Z"
      fill="black" />
    <path
      d="M285.114 491.958L273.662 497.208L294.487 509.262L273.662 521.357L296.165 533.467L277.683 551.95L298.716 568.781"
      stroke="#261F27" stroke-width="3" stroke-miterlimit="10" />
    <path d="M285.682 508.317L266.16 500.499L269.155 521.343L285.682 508.317Z" fill="#261F27" />
    <path d="M286.779 538.66L268.574 528.134V549.187L286.779 538.66Z" fill="#261F27" />
    <path d="M280.968 567.17C275.7 565.874 270.561 564.592 265.551 563.323V558.255L280.968 567.17Z" fill="#261F27" />
    <path d="M304.691 492.847L305.55 508.178L286.777 498.68L296.094 492.597" fill="#261F27" />
    <path d="M287.68 522.954L306.439 532.453L305.26 511.428L287.68 522.954Z" fill="#261F27" />
    <path d="M287.68 550.631L306.439 560.115L305.26 539.091L287.68 550.631Z" fill="#261F27" />
    <path d="M307.907 573.655L296.912 571.045L307.38 564.184L307.907 573.655Z" fill="#261F27" />
    <path
      d="M316.269 530.37C316.269 530.37 315.673 519.441 325.309 526.093C334.945 532.744 318.071 541.479 318.071 541.479L318.376 549.95L362.078 549.187V555.075C362.078 555.075 333.142 574.086 360.276 574.697"
      stroke="#272028" stroke-width="3" stroke-miterlimit="10" />
    <path
      d="M362.077 520.954L363.589 533.453C363.589 533.453 346.715 538.688 346.41 522.274L339.173 524.009V574.697H318.681C318.681 574.697 313.856 547.187 331.034 568.781"
      stroke="#272028" stroke-width="3" stroke-miterlimit="10" />
    <path d="M354.286 546.549L339.158 531.397L324.031 546.549L339.158 561.701L354.286 546.549Z" fill="#272028" />
    <path
      d="M361.564 510.706C361.564 510.706 361.745 521.649 352.372 514.65C343 507.651 360.178 499.541 360.178 499.541V491.875"
      stroke="#272028" stroke-width="3" stroke-miterlimit="10" />
    <path
      d="M339.338 493.042L338.7 508.817L338.423 516.247L331.116 517.635C331.463 501.235 314.479 505.776 314.479 505.776L315.477 518.357"
      stroke="#272028" stroke-width="3" stroke-miterlimit="10" />
    <path
      d="M352.691 491.653L354.41 493.514L338.701 508.081L324.643 492.806C329.454 492.708 334.348 492.556 339.339 492.306"
      fill="#272028" />
    <path d="M160.137 554.769L94.4316 606.692L129.717 640.41L197.308 574.683L160.137 554.769Z" fill="#261F27" />
    <path d="M150.211 620.565L151.015 586.681L118.877 589.5L150.211 620.565Z" fill="#C89A8A" />
    <path d="M138.314 572.989L165.767 600.207L166.696 576.086L138.314 572.989Z" fill="#C89A8A" />
    <path d="M178.424 568.781L160.691 564.615L178.022 584.154L178.424 568.781Z" fill="#C89A8A" />
    <path d="M129.317 637.41L130.107 603.512L97.9688 606.331L129.317 637.41Z" fill="#C89A8A" />
    <path
      d="M86.8064 616.344C55.4583 640.896 70.1688 686.5 70.1688 686.5C74.3282 690.667 135.499 686.5 135.499 686.5C149.489 663.282 86.8064 616.344 86.8064 616.344Z"
      fill="#272028" />
    <path
      d="M70.7238 679.14C69.5176 675.113 94.4464 636.882 94.4464 636.882C62.6962 632.05 70.7238 679.14 70.7238 679.14Z"
      fill="#C89A8A" />
    <path
      d="M73.6211 679.14C74.5916 675.058 115.215 654.408 115.215 654.408C90.1756 634.327 73.6211 679.14 73.6211 679.14Z"
      fill="#C89A8A" />
    <path
      d="M78.377 678.349C86.9731 675.46 124.574 672.294 124.574 672.294C108.172 657.324 85.2261 673.308 78.377 678.349Z"
      fill="#C89A8A" />
    <path
      d="M78.2949 684.584C87.2515 683.112 124.88 685.973 124.88 685.973C110.988 668.531 85.8512 680.71 78.2949 684.584Z"
      fill="#C89A8A" />
    <path
      d="M252.864 560.102L217.8 572.517L187.27 588.167L160.345 613.927L131.77 646.228L139.409 653.88L165.156 623.995L194.078 596.624L224.233 578.113L264.302 564.073L252.864 560.102Z"
      fill="#272028" />
    <path
      d="M277.947 566.42L267.298 568.781C152.36 602.929 140.242 688.028 140.242 688.028L193.76 685.501C224.124 604.193 299.853 571.739 299.853 571.739L277.947 566.42Z"
      fill="#272028" />
    <path d="M173.961 639.368C173.961 639.368 186.024 670.892 151.459 676.863" stroke="#C89A8A" stroke-width="2"
      stroke-miterlimit="10" />
    <path d="M178.91 686.098C171.063 660.185 198.806 652.769 198.806 652.769" stroke="#C89A8A" stroke-width="2"
      stroke-miterlimit="10" />
    <path d="M156.92 657.838L193.689 672.891" stroke="#C89A8A" stroke-width="2" stroke-miterlimit="10" />
    <path d="M213.17 594.25C213.17 594.25 217.704 627.703 182.668 625.565" stroke="#C89A8A" stroke-width="2"
      stroke-miterlimit="10" />
    <path d="M207.235 640.868C205.53 613.844 234.216 613.011 234.216 613.011" stroke="#C89A8A" stroke-width="2"
      stroke-miterlimit="10" />
    <path d="M192.318 608.317L224.679 631.397" stroke="#C89A8A" stroke-width="2" stroke-miterlimit="10" />
    <path d="M254.376 576.502C252.56 570.475 256.359 593.166 226.646 588.625" stroke="#C89A8A" stroke-width="2"
      stroke-miterlimit="10" />
    <path d="M242.23 604.693C249.468 578.599 266.438 586.167 266.438 586.167" stroke="#C89A8A" stroke-width="2"
      stroke-miterlimit="10" />
    <path d="M240.484 582.349L254.321 594.916" stroke="#C89A8A" stroke-width="2" stroke-miterlimit="10" />
    <path d="M288.344 566.351C288.344 561.713 286.375 578.571 266.299 569.309" stroke="#C89A8A" stroke-width="2"
      stroke-miterlimit="10" />
    <path d="M274.064 583.848C284.477 566.851 294.959 575.655 294.959 575.655" stroke="#C89A8A" stroke-width="2"
      stroke-miterlimit="10" />
    <path d="M277.363 567.684L284.615 579.391" stroke="#C89A8A" stroke-width="2" stroke-miterlimit="10" />
    <path
      d="M207.236 683.917C207.236 683.917 249.066 586.709 305.593 574.697H318.723C318.723 574.697 276.879 585.945 213.351 683.917H207.236Z"
      fill="#272028" />
    <path
      d="M227.824 682.793C240.538 661.185 289.3 582.14 324.309 577.474L344.399 583.098C344.399 583.098 293.432 633.925 270.514 678.599"
      fill="#272028" />
    <path d="M253.794 680.39L251.742 675.224L234.619 682.196" fill="#C89A8A" />
    <path d="M261.613 660.421L241.426 666.406L266.881 677.668L261.613 660.421Z" fill="#C89A8A" />
    <path d="M272.456 645.937L249.801 651.492L275.243 662.754L272.456 645.937Z" fill="#C89A8A" />
    <path d="M282.299 630.036L261.613 636.535L285.599 647.548L282.299 630.036Z" fill="#C89A8A" />
    <path d="M293.156 619.857L273.662 620.468L294.82 632.147L293.156 619.857Z" fill="#C89A8A" />
    <path d="M305.814 606.984L286.195 609.956L305.495 621.801L305.814 606.984Z" fill="#C89A8A" />
    <path d="M318.057 596.43L299.797 598.485L318.057 609.206V596.43Z" fill="#C89A8A" />
    <path d="M329.953 585.14L311.859 587.112L331.131 594.916L329.953 585.14Z" fill="#C89A8A" />
    <path
      d="M293.363 676.766L286.111 670.933L293.363 660.074C293.363 660.074 302.596 672.03 306.021 672.836C309.446 673.641 293.363 676.766 293.363 676.766Z"
      fill="#272028" />
    <path
      d="M297.273 649.242L322.312 620.468C322.312 620.468 354.021 668.309 357.307 666.031C360.593 663.754 313.231 673.169 313.231 673.169C313.231 673.169 292.891 654.283 297.273 649.242Z"
      fill="#272028" />
    <path
      d="M350.042 664.184L351.068 666.962C341.529 668.67 330.992 670.544 321.62 671.961L316.268 668.489L318.694 664.198H332.101V658.116L325.613 656.282L324.323 661.643L309.336 661.962L308.462 653.894H321.398L320.51 649.256L316.268 648.061V651.089L303.609 650.769L306.507 643.548L314.16 642.632V633.855H327.068L320.608 644.965H334.971L332.198 652.755L342.431 655.838L339.131 665.295L350.042 664.184Z"
      fill="#C89A8A" />
    <path d="M362.506 664.837L328.621 613.011L333.737 604.693" stroke="#272028" stroke-miterlimit="10" />
    <path
      d="M430.333 649.936H430.264C422.527 652.019 414.749 653.936 406.943 655.769C413.404 647.034 434.936 616.01 428.226 598.916L441.952 602.762C441.952 602.762 442.201 644.604 430.333 649.936Z"
      fill="#272028" />
    <path d="M354.049 612.219L347.435 603.373L339.172 612.497L346.603 624.148L354.049 612.219Z" fill="#272028" />
    <path d="M369.522 611.372L362.894 602.526L354.631 611.65L362.076 623.315L369.522 611.372Z" fill="#272028" />
    <path d="M384.398 608.414L377.785 599.554L369.521 608.692L376.953 620.343L384.398 608.414Z" fill="#272028" />
    <path d="M369.009 633.3L360.51 626.245L354.604 637.063L364.572 646.645L369.009 633.3Z" fill="#272028" />
    <path d="M385.758 630.314L376.954 623.648L371.547 634.73L381.932 643.854L385.758 630.314Z" fill="#272028" />
    <path d="M401.245 626.69L392.427 620.038L387.02 631.106L397.404 640.229L401.245 626.69Z" fill="#272028" />
    <path
      d="M405.182 649.367L403.102 656.657C400.745 657.185 398.375 657.727 396.018 658.227L390.957 653.783L396.364 642.673L405.182 649.367Z"
      fill="#272028" />
    <path
      d="M387.02 652.839L384.815 660.657C382.611 661.129 380.434 661.573 378.229 662.046L372.822 657.296L378.202 646.187L387.02 652.839Z"
      fill="#272028" />
    <path
      d="M355.699 587.889L347.949 599.61L340.809 587.792L345.994 582.362C348.296 582.876 350.569 583.376 352.857 583.848L355.699 587.889Z"
      fill="#272028" />
    <path
      d="M371.019 587.889L363.283 599.61L356.143 587.792L358.652 585.14C362.714 586.029 366.777 586.903 370.908 587.764L371.019 587.889Z"
      fill="#272028" />
    <path d="M384.344 590.57L378.355 599.61L371.242 587.889C375.596 588.815 379.963 589.709 384.344 590.57Z"
      fill="#272028" />
    <path d="M405.182 646.812C405.182 646.812 427.49 612.094 423.566 598.402" stroke="#272028" stroke-miterlimit="10" />
    <path d="M388.461 591.444C388.461 591.444 407.109 626.162 414.61 628.05" stroke="#272028" stroke-miterlimit="10" />
    <path d="M412.433 634.438C412.433 634.438 381.445 602.498 384.44 591.389" stroke="#272028" stroke-miterlimit="10" />
    <path d="M452.71 602.512C457.632 611.719 449.729 634.452 445.916 644.631" stroke="#272028" stroke-miterlimit="10" />
    <path d="M197.517 544.368L166.695 553.158L205.905 569.614L235.742 553.7L197.517 544.368Z" fill="#272028" />
    <path d="M375.346 546.548V564.018C375.346 564.018 390.611 552.436 375.346 546.548Z" fill="#272028" />
    <path d="M376.523 504.998V522.468C376.523 522.468 401.535 510.123 376.523 504.998Z" fill="#272028" />
    <path
      d="M380.157 528.787C381.903 528.787 383.318 527.369 383.318 525.62C383.318 523.872 381.903 522.454 380.157 522.454C378.411 522.454 376.996 523.872 376.996 525.62C376.996 527.369 378.411 528.787 380.157 528.787Z"
      fill="#272028" />
    <path
      d="M387.63 524.121C389.376 524.121 390.791 522.703 390.791 520.954C390.791 519.206 389.376 517.788 387.63 517.788C385.884 517.788 384.469 519.206 384.469 520.954C384.469 522.703 385.884 524.121 387.63 524.121Z"
      fill="#272028" />
    <path
      d="M393.952 516.288C395.698 516.288 397.113 514.871 397.113 513.122C397.113 511.373 395.698 509.956 393.952 509.956C392.206 509.956 390.791 511.373 390.791 513.122C390.791 514.871 392.206 516.288 393.952 516.288Z"
      fill="#272028" />
    <path
      d="M390.79 508.456C392.536 508.456 393.951 507.039 393.951 505.29C393.951 503.541 392.536 502.124 390.79 502.124C389.044 502.124 387.629 503.541 387.629 505.29C387.629 507.039 389.044 508.456 390.79 508.456Z"
      fill="#272028" />
    <path
      d="M383.317 505.498C385.063 505.498 386.479 504.081 386.479 502.332C386.479 500.583 385.063 499.166 383.317 499.166C381.572 499.166 380.156 500.583 380.156 502.332C380.156 504.081 381.572 505.498 383.317 505.498Z"
      fill="#272028" />
    <path
      d="M376.525 489.028C376.525 489.028 476.351 501.138 483.283 503.249C483.283 503.249 396.351 511.775 384.386 590.57L369.564 587.459L371.589 568.781C371.589 568.781 403.478 555.922 375.388 541.688V533.48C375.388 533.48 437.058 505.054 376.566 497.374L376.525 489.028Z"
      fill="#272028" />
    <path d="M401.244 487.209L482.034 495.597L465.105 478.808L401.244 487.209Z" fill="#272028" />
    <path
      d="M390.957 591.93C390.957 591.93 413.723 502.554 481.23 516.288C481.23 516.288 460.336 537.452 481.23 561.407L469.778 574.697C469.778 574.697 422.416 523.398 398.305 592.375L390.957 591.93Z"
      fill="#272028" />
    <path
      d="M406.291 583.14C406.291 583.14 407.04 568.184 424.911 560.116V567.365C424.911 567.365 415.067 570.683 410.242 585.57L406.291 583.14Z"
      fill="#272028" />
    <path
      d="M431.054 558.644C431.054 558.644 437.141 555.505 445.266 560.282L444.226 568.184L428.975 566.795L431.054 558.644Z"
      fill="#272028" />
    <path
      d="M451.699 562.893C451.699 562.893 463.152 569.461 464.552 571.878V583.348C464.552 583.348 457.481 573.378 449.301 569.934L451.699 562.893Z"
      fill="#272028" />
    <path
      d="M453.696 542.798C458.359 542.798 462.139 539.012 462.139 534.341C462.139 529.671 458.359 525.884 453.696 525.884C449.032 525.884 445.252 529.671 445.252 534.341C445.252 539.012 449.032 542.798 453.696 542.798Z"
      fill="#C59E97" />
    <path
      d="M451.767 594.916C451.767 597.971 449.604 600.721 446.221 602.512C437.903 601.124 429.584 599.513 421.168 597.874C420.718 596.953 420.482 595.942 420.475 594.916C420.475 589.431 427.49 585.015 436.156 585.015C444.821 585.015 451.767 589.431 451.767 594.916Z"
      fill="#272028" />
    <path
      d="M407.691 594.916C407.691 594.916 430 548.534 468.779 596.624L452.641 603.734L446.263 602.526C446.263 602.526 456.467 597.235 455.053 593C453.639 588.764 429.695 563.421 413.736 596.485L407.691 594.916Z"
      fill="#272028" />
    <path d="M483.99 480.349L487.914 500.429L519.248 483.362L483.99 480.349Z" stroke="#272028" stroke-width="2"
      stroke-miterlimit="10" />
    <path d="M488.814 505.79V554.005L527.996 528.787L488.814 505.79Z" stroke="#272028" stroke-width="2"
      stroke-miterlimit="10" />
    <path d="M488.052 560.81L481.23 599.082L520.44 577.544L488.052 560.81Z" stroke="#272028" stroke-width="2"
      stroke-miterlimit="10" />
    <path
      d="M522.631 582.529L516.419 613.677C510.638 612.886 504.718 612.067 498.728 611.192L488.787 601.124L522.631 582.529Z"
      fill="#272028" />
    <path d="M500.738 556.422L531.088 532.508L529.618 577.28L500.738 556.422Z" fill="#272028" />
    <path d="M502.139 507.512L526.61 484.168L529.022 523.287L502.139 507.512Z" fill="#272028" />
    <path d="M651.697 541.035L533.569 537.244L531.545 502.124L641.326 509.178L651.697 541.035Z" fill="#272028" />
    <path d="M531.727 505.151L547.491 520.94L533.46 535.008" stroke="#C59E97" stroke-miterlimit="10" />
    <path d="M568.093 520.338L552.133 504.352L536.172 520.338L552.133 536.324L568.093 520.338Z" stroke="#C59E97"
      stroke-miterlimit="10" />
    <path d="M589.695 520.338L573.734 504.352L557.774 520.338L573.734 536.324L589.695 520.338Z" stroke="#C59E97"
      stroke-miterlimit="10" />
    <path
      d="M589.638 504.429L575.76 518.33L591.718 534.314L600.481 525.551L607.676 518.33L601.701 512.345L594.519 505.151"
      stroke="#C59E97" stroke-miterlimit="10" />
    <path
      d="M608.093 506.97L601.701 512.344L593.701 519.024L600.481 525.551L610.88 534.689L624.051 520.343L611.476 506.762"
      stroke="#C59E97" stroke-miterlimit="10" />
    <path d="M631.828 539.827L607.801 521.19L626.102 509.178L638.456 530.37L631.828 539.827Z" stroke="#C59E97"
      stroke-miterlimit="10" />
    <path d="M649.728 538.952L624.494 520.732L644.002 508.303L656.369 529.495L649.728 538.952Z" stroke="#C59E97"
      stroke-miterlimit="10" />
    <path
      d="M534.443 544.84C534.443 544.84 644.668 536.716 653.416 560.657L650.782 568.823C650.782 568.823 614.013 541.049 535.705 556.074L534.443 544.84Z"
      fill="#272028" />
    <path d="M525.07 606.428L579.198 556.63L537.119 559.546L525.07 606.428Z" fill="#272028" />
    <path d="M534.928 616.205L665.811 593.541L591.898 560.754L534.928 616.205Z" fill="#272028" />
    <path
      d="M530.713 462.088C532.136 463.079 533.48 464.18 534.734 465.379L536.8 469.684C538.186 472.572 539.462 475.475 540.696 478.433C541.93 481.39 543.066 484.39 544.023 487.515C544.518 489.106 544.921 490.724 545.229 492.361C545.072 493.271 544.844 494.167 544.55 495.041C544.273 495.928 543.799 496.739 543.163 497.416C542.787 495.851 542.109 494.374 541.167 493.069C540.893 491.605 540.532 490.158 540.086 488.737C539.198 485.82 538.075 482.904 536.883 480.03C535.69 477.155 534.443 474.294 533.056 471.475C532.377 470.087 531.67 468.628 530.99 467.309C530.803 465.575 530.71 463.832 530.713 462.088Z"
      fill="#272028" />
    <path
      d="M561.424 498.013C560.441 496.636 559.538 495.203 558.72 493.722C558.54 492.208 558.276 490.695 558.041 489.181C557.542 486.154 557.015 483.14 556.405 480.141C555.795 477.141 555.143 474.169 554.311 471.295C553.925 469.882 553.462 468.491 552.925 467.129C552.943 466.369 552.92 465.608 552.855 464.851C552.866 464.073 552.623 463.312 552.162 462.685C552.392 462.657 552.625 462.657 552.855 462.685L553.549 462.907C553.966 463.117 554.365 463.364 554.741 463.643C555.463 464.205 556.135 464.828 556.751 465.504C557.371 467.007 557.898 468.547 558.332 470.114C559.219 473.169 559.899 476.225 560.509 479.294C561.119 482.363 561.673 485.418 562.172 488.487L562.893 493.097C562.531 494.772 562.04 496.415 561.424 498.013Z"
      fill="#272028" />
    <path
      d="M579.393 497.416C578.34 496.042 577.358 494.614 576.453 493.139C576.19 491.597 575.843 490.056 575.51 488.528C574.831 485.459 574.124 482.404 573.25 479.405C572.441 476.419 571.469 473.48 570.339 470.6C569.802 469.217 569.162 467.875 568.426 466.587C568.339 464.996 567.862 463.451 567.039 462.088C567.987 462.104 568.914 462.367 569.729 462.851C570.538 463.319 571.303 463.858 572.016 464.462C572.861 465.928 573.593 467.455 574.207 469.031C575.396 472.056 576.419 475.143 577.271 478.28C578.131 481.377 578.893 484.501 579.587 487.626L580.585 492.319C580.323 494.047 579.925 495.752 579.393 497.416Z"
      fill="#272028" />
    <path
      d="M601.77 498.36C600.453 496.638 599.33 494.889 598.193 493.153C597.694 491.236 597.111 489.348 596.529 487.445C595.35 483.668 594.075 479.918 592.661 476.252C591.295 472.601 589.673 469.051 587.808 465.629C586.918 464.015 585.863 462.498 584.661 461.102C583.912 459.407 583.163 457.741 581.111 456.936C582.193 456.467 583.405 456.393 584.536 456.727C585.67 457.078 586.748 457.587 587.739 458.241C589.152 459.864 590.388 461.633 591.427 463.518C593.389 467.097 595.098 470.809 596.543 474.628C597.929 478.419 599.316 482.252 600.494 486.098L602.241 492.07C602.231 494.175 602.074 496.277 601.77 498.36Z"
      fill="#272028" />
    <path
      d="M522.631 469.073C522.631 469.073 697.535 464.462 638.429 613.761L634.547 619.829L561.425 618.607C561.425 618.607 611.643 652.283 638.457 630.106C638.457 630.106 710.401 579.863 689.05 532.592C689.05 532.592 639.968 346.59 501.626 344.104C363.284 341.619 485.862 343.813 485.862 343.813L434.41 336.98L522.631 469.073Z"
      fill="black" />
    <path
      d="M260.254 313.164C262.875 318.052 277.349 338.577 332.586 329.828C332.76 329.787 332.94 329.787 333.113 329.828L352.274 336.064C352.455 336.125 352.647 336.142 352.835 336.111C353.023 336.081 353.201 336.005 353.353 335.89C353.505 335.775 353.626 335.624 353.707 335.451C353.787 335.278 353.824 335.088 353.813 334.897C353.397 326.94 354.257 294.167 396.877 295.417C397.008 295.42 397.137 295.398 397.259 295.351C397.381 295.304 397.492 295.233 397.586 295.143C397.68 295.052 397.756 294.944 397.808 294.824C397.86 294.704 397.888 294.575 397.889 294.445V244.757C397.889 244.499 397.801 244.248 397.64 244.046C397.479 243.844 397.254 243.703 397.002 243.646L271.374 214.747C271.374 214.747 272.206 303.624 260.545 311.748C260.334 311.908 260.187 312.141 260.134 312.401C260.08 312.662 260.123 312.933 260.254 313.164Z"
      fill="#C59E97" />
    <path d="M271.568 219.594C271.568 219.594 273.052 289.487 397.89 289.112V256.922L271.568 219.594Z" fill="#BA9893" />
    <path
      d="M438.583 166.268C438.583 166.268 430.181 283.335 341.53 270.823C289.08 263.435 256.955 208.804 252.796 160.811C252.142 153.451 251.994 146.055 252.352 138.675C253.448 112.817 260.408 87.6682 272.304 68.657C309.669 8.9432 365.807 31.9122 365.807 31.9122C382.611 33.6897 395.769 38.1335 406.015 44.4104L414.888 53.2009C419.519 50.0902 432.233 65.2547 433.841 68.782C435.233 71.3921 436.46 74.0868 437.516 76.8503C451.963 114.151 438.583 166.268 438.583 166.268Z"
      fill="#C59E97" />
    <path
      d="M437.515 76.031C430.833 87.1405 401.62 93.2508 398.251 93.8479C398.098 93.8479 397.973 93.6813 398.001 93.5285L402.604 80.3776C393.19 93.0563 361.675 107.429 361.357 107.596L355.811 109.165C360.774 107.499 363.048 84.8214 363.519 79.6554C363.524 79.6046 363.511 79.5538 363.482 79.5116C363.453 79.4694 363.411 79.4384 363.362 79.4237C363.313 79.4091 363.261 79.4117 363.214 79.4311C363.167 79.4506 363.128 79.4856 363.104 79.5305C353.662 97.2224 328.442 115.914 324.768 118.539C324.615 118.664 324.393 118.539 324.421 118.317L327.859 99.0694C327.929 98.6896 327.878 98.2976 327.715 97.9477C327.552 97.5978 327.285 97.3074 326.95 97.1167C326.614 96.9259 326.228 96.8443 325.845 96.8832C325.461 96.922 325.099 97.0794 324.809 97.3335L310.639 106.471C310.504 106.564 310.345 106.613 310.181 106.614C310.018 106.615 309.858 106.566 309.722 106.475C309.587 106.384 309.481 106.254 309.42 106.103C309.358 105.951 309.344 105.784 309.378 105.624L312.775 88.9597C312.786 88.9122 312.781 88.862 312.76 88.8179C312.738 88.7739 312.702 88.7389 312.657 88.719C312.613 88.6991 312.562 88.6956 312.515 88.7092C312.468 88.7227 312.428 88.7524 312.4 88.793C295.652 113.484 256.72 135.523 252.311 137.953C253.406 112.095 260.366 86.9322 272.262 67.921C309.627 8.20718 365.766 31.1901 365.766 31.1901C382.57 32.9537 395.727 37.3975 405.973 43.6189L414.847 52.4093C419.477 49.2847 432.191 64.4493 433.8 67.9904C435.204 70.5905 436.445 73.2759 437.515 76.031Z"
      fill="#5A3837" />
    <path
      d="M257.675 93.1535C257.412 88.1126 263.72 86.1129 265.634 81.3219C269.682 71.1566 274.161 61.8802 279.29 58.3807C287.817 52.4648 293.807 50.4512 298.992 42.6745C300.517 40.3971 301.959 37.6197 305.412 35.4394C309.737 32.6621 312.968 33.5508 319.082 31.815C325.529 29.9819 325.557 27.0934 330.729 26.1769C334.957 25.4408 336.274 26.7601 340.781 26.9823C349.959 27.4128 351.775 22.3857 360.468 21.3442C371.768 19.9555 379.394 27.2045 380.974 24.9687C382.153 23.3023 379.006 17.7058 374.139 14.4979C366.319 9.34589 357.779 12.8037 338.77 16.9143C311.512 22.8162 312.843 19.2334 299.796 24.1632C288.316 28.5099 281.19 33.5925 268.448 42.6745C249.038 56.5615 247.54 62.3107 247.152 64.4076C245.682 72.1704 250.674 73.9757 250.771 86.1545C250.771 95.6532 247.804 96.0976 246.348 109.096C246.029 111.873 246.265 119.039 246.75 133.245C247.277 148.882 236.74 178.336 239.513 179.53C242.078 180.641 249.773 161.13 249.218 158.603C246.708 148.271 258.105 124.149 252.213 110.304C250.008 105.082 253.835 105.999 256.511 104.18C258.798 102.597 257.8 95.5837 257.675 93.1535Z"
      fill="black" />
    <path
      d="M413.916 44.5909C407.525 53.0759 430.79 83.4743 436.225 87.7515C437.838 89.0397 439.241 90.5717 440.384 92.2926C441.497 93.7662 442.282 95.4613 442.686 97.2641C443.282 100.583 441.604 102.472 440.689 105.596C439.386 109.971 441.438 110.596 442.2 119.789C442.686 125.677 443.046 129.996 441.895 135.175C441.088 137.812 440.782 140.577 440.994 143.327C441.258 145.841 441.881 146.535 441.881 148.646C441.881 152.187 437.334 166.477 436.405 168.518C433.327 175.323 435.31 201.583 437.459 201.541C440.856 201.472 448.245 147.563 448.828 140.314C450.741 117.122 455.718 54.9645 430.457 43.6883C424.495 40.9942 416.592 41.0775 413.916 44.5909Z"
      fill="black" />
    <path
      d="M268.781 215.97C265.301 213.289 257.689 215.317 252.559 219.497C241.828 228.329 241.856 247.521 245.558 267.198C253.028 267.085 260.499 267.391 267.935 268.115C271.942 259.075 276.684 222.066 268.781 215.97Z"
      fill="black" />
    <path
      d="M254.848 311.151C259.769 310.664 264.719 311.717 269.018 314.164C276.893 318.927 277.642 326.912 287.999 333.786C290.076 335.264 292.437 336.294 294.931 336.814C298.669 337.43 302.504 337.013 306.023 335.605C308.435 334.619 310.584 333.064 313.08 332.286C314.874 331.651 316.832 331.651 318.626 332.286C321.316 333.384 323.063 336.314 325.891 337.05C327.811 337.346 329.776 337.116 331.575 336.383C342.473 333.039 354.244 334.091 364.379 339.313C365.766 340.035 367.721 340.702 368.872 339.647C369.22 339.177 369.46 338.635 369.575 338.062C369.69 337.488 369.677 336.896 369.537 336.328C368.768 328.373 370.117 320.357 373.447 313.095C376.829 305.817 382.639 299.948 389.877 296.5C393.96 294.815 398.214 293.577 402.563 292.806C403.247 292.705 403.901 292.454 404.476 292.07C407.485 289.709 401.01 281.502 400.123 278.822C398.741 274.206 398.636 269.301 399.818 264.629C400.608 260.366 401.606 254.908 405.239 253.77C408.012 252.881 410.785 254.936 411.27 255.27C414.653 257.839 414.819 262.324 414.889 264.032C415.069 268.893 413.017 270.976 411.575 275.808C409.606 282.377 410.743 287.473 410.965 290.598C411.769 301.291 405.419 335.925 389.877 351.575C356.685 385.015 260.519 353.075 254.848 318.066C254.486 315.775 254.486 313.442 254.848 311.151Z"
      fill="black" />
    <path opacity="0.8" d="M264.303 564.073C264.303 564.073 430.582 614.58 471.955 606.984L264.303 564.073Z"
      fill="#272028" />
  </g>
  <defs>
    <clipPath id="clip0_18_266">
      <rect width="693" height="690" fill="white" />
    </clipPath>
  </defs>
</svg>